<?xml version="1.0" encoding="utf-8" standalone="no"?>
<!DOCTYPE svg PUBLIC "-//W3C//DTD SVG 1.1//EN"
  "http://www.w3.org/Graphics/SVG/1.1/DTD/svg11.dtd">
<!-- Created with matplotlib (http://matplotlib.org/) -->
<svg height="275pt" version="1.1" viewBox="0 0 366 275" width="366pt" xmlns="http://www.w3.org/2000/svg" xmlns:xlink="http://www.w3.org/1999/xlink">
 <defs>
  <style type="text/css">
*{stroke-linecap:butt;stroke-linejoin:round;}
  </style>
 </defs>
 <g id="figure_1">
  <g id="patch_1">
   <path d="
M0 275.634
L366.081 275.634
L366.081 0
L0 0
z
" style="fill:none;"/>
  </g>
  <g id="axes_1">
   <g id="patch_2">
    <path d="
M24.0813 235.239
L358.881 235.239
L358.881 12.0391
L24.0813 12.0391
z
" style="fill:none;"/>
   </g>
   <g id="line2d_1">
    <path clip-path="url(#p4fd10ad722)" d="
M213.801 101.319
L213.711 98.4878
L213.442 95.668
L212.995 92.8709
L212.37 90.1078
L211.572 87.3899
L210.604 84.7281
L209.468 82.133
L208.17 79.6152
L206.715 77.1849
L205.109 74.8517
L203.357 72.625
L201.469 70.5139
L199.45 68.5269
L197.309 66.6719
L195.055 64.9564
L192.697 63.3873
L190.243 61.971
L187.705 60.7131
L185.093 59.6187
L182.416 58.6922
L179.686 57.9374
L176.913 57.3572
L174.109 56.9541
L171.285 56.7296
L168.453 56.6847
L165.624 56.8195
L162.808 57.1334
L160.019 57.6253
L157.266 58.2931
L154.561 59.1342
L151.915 60.1452
L149.338 61.3219
L146.841 62.6597
L144.434 64.1531
L142.127 65.7963
L139.928 67.5824
L137.847 69.5044
L135.893 71.5545
L134.072 73.7244
L132.392 76.0055
L130.861 78.3885
L129.484 80.8638
L128.266 83.4215
L127.213 86.0513
L126.329 88.7425
L125.618 91.4844
L125.082 94.2659
L124.723 97.0758
L124.544 99.9027
L124.544 102.735
L124.723 105.562
L125.082 108.372
L125.618 111.154
L126.329 113.896
L127.213 116.587
L128.266 119.217
L129.484 121.774
L130.861 124.25
L132.392 126.633
L134.072 128.914
L135.893 131.084
L137.847 133.134
L139.928 135.056
L142.127 136.842
L144.434 138.485
L146.841 139.978
L149.338 141.316
L151.915 142.493
L154.561 143.504
L157.266 144.345
L160.019 145.013
L162.808 145.505
L165.624 145.819
L168.453 145.953
L171.285 145.909
L174.109 145.684
L176.913 145.281
L179.686 144.701
L182.416 143.946
L185.093 143.019
L187.705 141.925
L190.243 140.667
L192.697 139.251
L195.055 137.682
L197.309 135.966
L199.45 134.111
L201.469 132.124
L203.357 130.013
L205.109 127.786
L206.715 125.453
L208.17 123.023
L209.468 120.505
L210.604 117.91
L211.572 115.248
L212.37 112.53
L212.995 109.767
L213.442 106.97
L213.711 104.15
L213.801 101.319" style="fill:none;stroke:#000000;stroke-linecap:square;"/>
   </g>
   <g id="line2d_2">
    <path clip-path="url(#p4fd10ad722)" d="
M213.801 12.0391
L213.711 12.2188
L213.442 12.7573
L212.995 13.6525
L212.37 14.9006
L211.572 16.4967
L210.604 18.4344
L209.468 20.7058
L208.17 23.3018
L206.715 26.2119
L205.109 29.4245
L203.357 32.9266
L201.469 36.7041
L199.45 40.7417
L197.309 45.0233
L195.055 49.5316
L192.697 54.2484
L190.243 59.1547
L187.705 64.2308
L185.093 69.4563
L182.416 74.81
L179.686 80.2705
L176.913 85.8158
L174.109 91.4234
L171.285 97.0709
L168.453 102.736
L165.624 108.394
L162.808 114.025
L160.019 119.604
L157.266 125.11
L154.561 130.52
L151.915 135.812
L149.338 140.965
L146.841 145.959
L144.434 150.773
L142.127 155.388
L139.928 159.785
L137.847 163.947
L135.893 167.856
L134.072 171.498
L132.392 174.857
L130.861 177.92
L129.484 180.674
L128.266 183.109
L127.213 185.215
L126.329 186.983
L125.618 188.405
L125.082 189.478
L124.723 190.195
L124.544 190.554
L124.544 190.554
L124.723 190.195
L125.082 189.478
L125.618 188.405
L126.329 186.983
L127.213 185.215
L128.266 183.109
L129.484 180.674
L130.861 177.92
L132.392 174.857
L134.072 171.498
L135.893 167.856
L137.847 163.947
L139.928 159.785
L142.127 155.388
L144.434 150.773
L146.841 145.959
L149.338 140.965
L151.915 135.812
L154.561 130.52
L157.266 125.11
L160.019 119.604
L162.808 114.025
L165.624 108.394
L168.453 102.736
L171.285 97.0709
L174.109 91.4234
L176.913 85.8158
L179.686 80.2705
L182.416 74.81
L185.093 69.4563
L187.705 64.2308
L190.243 59.1547
L192.697 54.2484
L195.055 49.5316
L197.309 45.0233
L199.45 40.7417
L201.469 36.7041
L203.357 32.9266
L205.109 29.4245
L206.715 26.2119
L208.17 23.3018
L209.468 20.7058
L210.604 18.4344
L211.572 16.4967
L212.37 14.9006
L212.995 13.6525
L213.442 12.7573
L213.711 12.2188
L213.801 12.0391" style="fill:none;stroke:#0000ff;stroke-linecap:square;"/>
   </g>
   <g id="line2d_3">
    <path clip-path="url(#p4fd10ad722)" d="
M213.801 101.319
L213.711 95.6566
L213.442 90.0169
L212.995 84.4227
L212.37 78.8966
L211.572 73.4607
L210.604 68.137
L209.468 62.947
L208.17 57.9114
L206.715 53.0507
L205.109 48.3842
L203.357 43.931
L201.469 39.7088
L199.45 35.7347
L197.309 32.0247
L195.055 28.5937
L192.697 25.4556
L190.243 22.6229
L187.705 20.1071
L185.093 17.9183
L182.416 16.0654
L179.686 14.5557
L176.913 13.3954
L174.109 12.5892
L171.285 12.1402
L168.453 12.0503
L165.624 12.3199
L162.808 12.9478
L160.019 13.9316
L157.266 15.2672
L154.561 16.9494
L151.915 18.9713
L149.338 21.3247
L146.841 24.0003
L144.434 26.9872
L142.127 30.2734
L139.928 33.8457
L137.847 37.6897
L135.893 41.7899
L134.072 46.1298
L132.392 50.692
L130.861 55.4579
L129.484 60.4086
L128.266 65.524
L127.213 70.7835
L126.329 76.166
L125.618 81.6497
L125.082 87.2127
L124.723 92.8325
L124.544 98.4864
L124.544 98.4864
L124.723 92.8325
L125.082 87.2127
L125.618 81.6497
L126.329 76.166
L127.213 70.7835
L128.266 65.524
L129.484 60.4086
L130.861 55.4579
L132.392 50.692
L134.072 46.1298
L135.893 41.7899
L137.847 37.6897
L139.928 33.8457
L142.127 30.2734
L144.434 26.9872
L146.841 24.0003
L149.338 21.3247
L151.915 18.9713
L154.561 16.9494
L157.266 15.2672
L160.019 13.9316
L162.808 12.9478
L165.624 12.3199
L168.453 12.0503
L171.285 12.1402
L174.109 12.5892
L176.913 13.3954
L179.686 14.5557
L182.416 16.0654
L185.093 17.9183
L187.705 20.1071
L190.243 22.6229
L192.697 25.4556
L195.055 28.5937
L197.309 32.0247
L199.45 35.7347
L201.469 39.7088
L203.357 43.931
L205.109 48.3842
L206.715 53.0507
L208.17 57.9114
L209.468 62.947
L210.604 68.137
L211.572 73.4607
L212.37 78.8966
L212.995 84.4227
L213.442 90.0169
L213.711 95.6566
L213.801 101.319" style="fill:none;stroke:#ff0000;stroke-linecap:square;"/>
   </g>
   <g id="line2d_4">
    <path clip-path="url(#p4fd10ad722)" d="
M213.801 56.6791
L213.711 57.3973
L213.442 59.5406
L212.995 63.0744
L212.37 67.9418
L211.572 74.0645
L210.604 81.3441
L209.468 89.6633
L208.17 98.8884
L206.715 108.871
L205.109 119.45
L203.357 130.456
L201.469 141.711
L199.45 153.034
L197.309 164.244
L195.055 175.16
L192.697 185.605
L190.243 195.413
L187.705 204.425
L185.093 212.496
L182.416 219.497
L179.686 225.314
L176.913 229.855
L174.109 233.045
L171.285 234.835
L168.453 235.194
L165.624 234.118
L162.808 231.623
L160.019 227.749
L157.266 222.56
L154.561 216.138
L151.915 208.587
L149.338 200.028
L146.841 190.599
L144.434 180.452
L142.127 169.75
L139.928 158.665
L137.847 147.376
L135.893 136.063
L134.072 124.911
L132.392 114.096
L130.861 103.795
L129.484 94.1716
L128.266 85.3817
L127.213 77.5666
L126.329 70.8519
L125.618 65.3458
L125.082 61.1367
L124.723 58.2925
L124.544 56.8588
L124.544 56.8588
L124.723 58.2925
L125.082 61.1367
L125.618 65.3458
L126.329 70.8519
L127.213 77.5666
L128.266 85.3817
L129.484 94.1716
L130.861 103.795
L132.392 114.096
L134.072 124.911
L135.893 136.063
L137.847 147.376
L139.928 158.665
L142.127 169.75
L144.434 180.452
L146.841 190.599
L149.338 200.028
L151.915 208.587
L154.561 216.138
L157.266 222.56
L160.019 227.749
L162.808 231.623
L165.624 234.118
L168.453 235.194
L171.285 234.835
L174.109 233.045
L176.913 229.855
L179.686 225.314
L182.416 219.497
L185.093 212.496
L187.705 204.425
L190.243 195.413
L192.697 185.605
L195.055 175.16
L197.309 164.244
L199.45 153.034
L201.469 141.711
L203.357 130.456
L205.109 119.45
L206.715 108.871
L208.17 98.8884
L209.468 89.6633
L210.604 81.3441
L211.572 74.0645
L212.37 67.9418
L212.995 63.0744
L213.442 59.5406
L213.711 57.3973
L213.801 56.6791" style="fill:none;stroke:#008000;stroke-linecap:square;"/>
   </g>
   <g id="patch_3">
    <path d="
M24.0813 12.0391
L358.881 12.0391" style="fill:none;stroke:#000000;stroke-linecap:square;stroke-linejoin:miter;"/>
   </g>
   <g id="patch_4">
    <path d="
M358.881 235.239
L358.881 12.0391" style="fill:none;stroke:#000000;stroke-linecap:square;stroke-linejoin:miter;"/>
   </g>
   <g id="patch_5">
    <path d="
M24.0813 235.239
L358.881 235.239" style="fill:none;stroke:#000000;stroke-linecap:square;stroke-linejoin:miter;"/>
   </g>
   <g id="patch_6">
    <path d="
M24.0813 235.239
L24.0813 12.0391" style="fill:none;stroke:#000000;stroke-linecap:square;stroke-linejoin:miter;"/>
   </g>
   <g id="matplotlib.axis_1">
    <g id="xtick_1">
     <g id="line2d_5">
      <path clip-path="url(#p4fd10ad722)" d="
M35.2413 235.239
L35.2413 12.0391" style="fill:none;stroke:#000000;stroke-dasharray:1.000000,3.000000;stroke-dashoffset:0.0;stroke-width:0.5;"/>
     </g>
     <g id="line2d_6">
      <defs>
       <path d="
M0 0
L0 -4" id="m93b0483c22" style="stroke:#000000;stroke-width:0.5;"/>
      </defs>
      <g>
       <use style="stroke:#000000;stroke-width:0.5;" x="35.24125" xlink:href="#m93b0483c22" y="235.2390625"/>
      </g>
     </g>
     <g id="line2d_7">
      <defs>
       <path d="
M0 0
L0 4" id="m741efc42ff" style="stroke:#000000;stroke-width:0.5;"/>
      </defs>
      <g>
       <use style="stroke:#000000;stroke-width:0.5;" x="35.24125" xlink:href="#m741efc42ff" y="12.0390625"/>
      </g>
     </g>
     <g id="text_1">
      <!-- −3 -->
      <defs>
       <path d="
M40.5781 39.3125
Q47.6562 37.7969 51.625 33
Q55.6094 28.2188 55.6094 21.1875
Q55.6094 10.4062 48.1875 4.48438
Q40.7656 -1.42188 27.0938 -1.42188
Q22.5156 -1.42188 17.6562 -0.515625
Q12.7969 0.390625 7.625 2.20312
L7.625 11.7188
Q11.7188 9.32812 16.5938 8.10938
Q21.4844 6.89062 26.8125 6.89062
Q36.0781 6.89062 40.9375 10.5469
Q45.7969 14.2031 45.7969 21.1875
Q45.7969 27.6406 41.2812 31.2656
Q36.7656 34.9062 28.7188 34.9062
L20.2188 34.9062
L20.2188 43.0156
L29.1094 43.0156
Q36.375 43.0156 40.2344 45.9219
Q44.0938 48.8281 44.0938 54.2969
Q44.0938 59.9062 40.1094 62.9062
Q36.1406 65.9219 28.7188 65.9219
Q24.6562 65.9219 20.0156 65.0312
Q15.375 64.1562 9.8125 62.3125
L9.8125 71.0938
Q15.4375 72.6562 20.3438 73.4375
Q25.25 74.2188 29.5938 74.2188
Q40.8281 74.2188 47.3594 69.1094
Q53.9062 64.0156 53.9062 55.3281
Q53.9062 49.2656 50.4375 45.0938
Q46.9688 40.9219 40.5781 39.3125" id="DejaVuSans-33"/>
       <path d="
M10.5938 35.5
L73.1875 35.5
L73.1875 27.2031
L10.5938 27.2031
z
" id="DejaVuSans-2212"/>
      </defs>
      <g transform="translate(28.800625 246.8375)scale(0.1 -0.1)">
       <use xlink:href="#DejaVuSans-2212"/>
       <use x="83.7890625" xlink:href="#DejaVuSans-33"/>
      </g>
     </g>
    </g>
    <g id="xtick_2">
     <g id="line2d_8">
      <path clip-path="url(#p4fd10ad722)" d="
M79.8813 235.239
L79.8813 12.0391" style="fill:none;stroke:#000000;stroke-dasharray:1.000000,3.000000;stroke-dashoffset:0.0;stroke-width:0.5;"/>
     </g>
     <g id="line2d_9">
      <g>
       <use style="stroke:#000000;stroke-width:0.5;" x="79.88125" xlink:href="#m93b0483c22" y="235.2390625"/>
      </g>
     </g>
     <g id="line2d_10">
      <g>
       <use style="stroke:#000000;stroke-width:0.5;" x="79.88125" xlink:href="#m741efc42ff" y="12.0390625"/>
      </g>
     </g>
     <g id="text_2">
      <!-- −2 -->
      <defs>
       <path d="
M19.1875 8.29688
L53.6094 8.29688
L53.6094 0
L7.32812 0
L7.32812 8.29688
Q12.9375 14.1094 22.625 23.8906
Q32.3281 33.6875 34.8125 36.5312
Q39.5469 41.8438 41.4219 45.5312
Q43.3125 49.2188 43.3125 52.7812
Q43.3125 58.5938 39.2344 62.25
Q35.1562 65.9219 28.6094 65.9219
Q23.9688 65.9219 18.8125 64.3125
Q13.6719 62.7031 7.8125 59.4219
L7.8125 69.3906
Q13.7656 71.7812 18.9375 73
Q24.125 74.2188 28.4219 74.2188
Q39.75 74.2188 46.4844 68.5469
Q53.2188 62.8906 53.2188 53.4219
Q53.2188 48.9219 51.5312 44.8906
Q49.8594 40.875 45.4062 35.4062
Q44.1875 33.9844 37.6406 27.2188
Q31.1094 20.4531 19.1875 8.29688" id="DejaVuSans-32"/>
      </defs>
      <g transform="translate(73.540625 246.8375)scale(0.1 -0.1)">
       <use xlink:href="#DejaVuSans-2212"/>
       <use x="83.7890625" xlink:href="#DejaVuSans-32"/>
      </g>
     </g>
    </g>
    <g id="xtick_3">
     <g id="line2d_11">
      <path clip-path="url(#p4fd10ad722)" d="
M124.521 235.239
L124.521 12.0391" style="fill:none;stroke:#000000;stroke-dasharray:1.000000,3.000000;stroke-dashoffset:0.0;stroke-width:0.5;"/>
     </g>
     <g id="line2d_12">
      <g>
       <use style="stroke:#000000;stroke-width:0.5;" x="124.52125" xlink:href="#m93b0483c22" y="235.2390625"/>
      </g>
     </g>
     <g id="line2d_13">
      <g>
       <use style="stroke:#000000;stroke-width:0.5;" x="124.52125" xlink:href="#m741efc42ff" y="12.0390625"/>
      </g>
     </g>
     <g id="text_3">
      <!-- −1 -->
      <defs>
       <path d="
M12.4062 8.29688
L28.5156 8.29688
L28.5156 63.9219
L10.9844 60.4062
L10.9844 69.3906
L28.4219 72.9062
L38.2812 72.9062
L38.2812 8.29688
L54.3906 8.29688
L54.3906 0
L12.4062 0
z
" id="DejaVuSans-31"/>
      </defs>
      <g transform="translate(118.1415625 246.8375)scale(0.1 -0.1)">
       <use xlink:href="#DejaVuSans-2212"/>
       <use x="83.7890625" xlink:href="#DejaVuSans-31"/>
      </g>
     </g>
    </g>
    <g id="xtick_4">
     <g id="line2d_14">
      <path clip-path="url(#p4fd10ad722)" d="
M169.161 235.239
L169.161 12.0391" style="fill:none;stroke:#000000;stroke-dasharray:1.000000,3.000000;stroke-dashoffset:0.0;stroke-width:0.5;"/>
     </g>
     <g id="line2d_15">
      <g>
       <use style="stroke:#000000;stroke-width:0.5;" x="169.16125" xlink:href="#m93b0483c22" y="235.2390625"/>
      </g>
     </g>
     <g id="line2d_16">
      <g>
       <use style="stroke:#000000;stroke-width:0.5;" x="169.16125" xlink:href="#m741efc42ff" y="12.0390625"/>
      </g>
     </g>
     <g id="text_4">
      <!-- 0 -->
      <defs>
       <path d="
M31.7812 66.4062
Q24.1719 66.4062 20.3281 58.9062
Q16.5 51.4219 16.5 36.375
Q16.5 21.3906 20.3281 13.8906
Q24.1719 6.39062 31.7812 6.39062
Q39.4531 6.39062 43.2812 13.8906
Q47.125 21.3906 47.125 36.375
Q47.125 51.4219 43.2812 58.9062
Q39.4531 66.4062 31.7812 66.4062
M31.7812 74.2188
Q44.0469 74.2188 50.5156 64.5156
Q56.9844 54.8281 56.9844 36.375
Q56.9844 17.9688 50.5156 8.26562
Q44.0469 -1.42188 31.7812 -1.42188
Q19.5312 -1.42188 13.0625 8.26562
Q6.59375 17.9688 6.59375 36.375
Q6.59375 54.8281 13.0625 64.5156
Q19.5312 74.2188 31.7812 74.2188" id="DejaVuSans-30"/>
      </defs>
      <g transform="translate(166.64171875 246.8375)scale(0.1 -0.1)">
       <use xlink:href="#DejaVuSans-30"/>
      </g>
     </g>
    </g>
    <g id="xtick_5">
     <g id="line2d_17">
      <path clip-path="url(#p4fd10ad722)" d="
M213.801 235.239
L213.801 12.0391" style="fill:none;stroke:#000000;stroke-dasharray:1.000000,3.000000;stroke-dashoffset:0.0;stroke-width:0.5;"/>
     </g>
     <g id="line2d_18">
      <g>
       <use style="stroke:#000000;stroke-width:0.5;" x="213.80125" xlink:href="#m93b0483c22" y="235.2390625"/>
      </g>
     </g>
     <g id="line2d_19">
      <g>
       <use style="stroke:#000000;stroke-width:0.5;" x="213.80125" xlink:href="#m741efc42ff" y="12.0390625"/>
      </g>
     </g>
     <g id="text_5">
      <!-- 1 -->
      <g transform="translate(211.6309375 246.8375)scale(0.1 -0.1)">
       <use xlink:href="#DejaVuSans-31"/>
      </g>
     </g>
    </g>
    <g id="xtick_6">
     <g id="line2d_20">
      <path clip-path="url(#p4fd10ad722)" d="
M258.441 235.239
L258.441 12.0391" style="fill:none;stroke:#000000;stroke-dasharray:1.000000,3.000000;stroke-dashoffset:0.0;stroke-width:0.5;"/>
     </g>
     <g id="line2d_21">
      <g>
       <use style="stroke:#000000;stroke-width:0.5;" x="258.44125" xlink:href="#m93b0483c22" y="235.2390625"/>
      </g>
     </g>
     <g id="line2d_22">
      <g>
       <use style="stroke:#000000;stroke-width:0.5;" x="258.44125" xlink:href="#m741efc42ff" y="12.0390625"/>
      </g>
     </g>
     <g id="text_6">
      <!-- 2 -->
      <g transform="translate(256.1271875 246.8375)scale(0.1 -0.1)">
       <use xlink:href="#DejaVuSans-32"/>
      </g>
     </g>
    </g>
    <g id="xtick_7">
     <g id="line2d_23">
      <path clip-path="url(#p4fd10ad722)" d="
M303.081 235.239
L303.081 12.0391" style="fill:none;stroke:#000000;stroke-dasharray:1.000000,3.000000;stroke-dashoffset:0.0;stroke-width:0.5;"/>
     </g>
     <g id="line2d_24">
      <g>
       <use style="stroke:#000000;stroke-width:0.5;" x="303.08125" xlink:href="#m93b0483c22" y="235.2390625"/>
      </g>
     </g>
     <g id="line2d_25">
      <g>
       <use style="stroke:#000000;stroke-width:0.5;" x="303.08125" xlink:href="#m741efc42ff" y="12.0390625"/>
      </g>
     </g>
     <g id="text_7">
      <!-- 3 -->
      <g transform="translate(300.68203125 246.8375)scale(0.1 -0.1)">
       <use xlink:href="#DejaVuSans-33"/>
      </g>
     </g>
    </g>
    <g id="xtick_8">
     <g id="line2d_26">
      <path clip-path="url(#p4fd10ad722)" d="
M347.721 235.239
L347.721 12.0391" style="fill:none;stroke:#000000;stroke-dasharray:1.000000,3.000000;stroke-dashoffset:0.0;stroke-width:0.5;"/>
     </g>
     <g id="line2d_27">
      <g>
       <use style="stroke:#000000;stroke-width:0.5;" x="347.72125" xlink:href="#m93b0483c22" y="235.2390625"/>
      </g>
     </g>
     <g id="line2d_28">
      <g>
       <use style="stroke:#000000;stroke-width:0.5;" x="347.72125" xlink:href="#m741efc42ff" y="12.0390625"/>
      </g>
     </g>
     <g id="text_8">
      <!-- 4 -->
      <defs>
       <path d="
M37.7969 64.3125
L12.8906 25.3906
L37.7969 25.3906
z

M35.2031 72.9062
L47.6094 72.9062
L47.6094 25.3906
L58.0156 25.3906
L58.0156 17.1875
L47.6094 17.1875
L47.6094 0
L37.7969 0
L37.7969 17.1875
L4.89062 17.1875
L4.89062 26.7031
z
" id="DejaVuSans-34"/>
      </defs>
      <g transform="translate(345.065 246.8375)scale(0.1 -0.1)">
       <use xlink:href="#DejaVuSans-34"/>
      </g>
     </g>
    </g>
    <g id="text_9">
     <!-- $x$ -->
     <defs>
      <path d="
M7.8125 2.875
Q9.57812 1.51562 12.7969 1.51562
Q15.9219 1.51562 18.3125 4.51562
Q20.7031 7.51562 21.5781 11.0781
L26.125 28.8125
Q27.2031 33.6406 27.2031 35.4062
Q27.2031 37.8906 25.8125 39.75
Q24.4219 41.6094 21.9219 41.6094
Q18.75 41.6094 15.9688 39.625
Q13.1875 37.6406 11.2812 34.5938
Q9.375 31.5469 8.59375 28.4219
Q8.40625 27.7812 7.8125 27.7812
L6.59375 27.7812
Q5.8125 27.7812 5.8125 28.7188
L5.8125 29
Q6.78125 32.7188 9.125 36.25
Q11.4688 39.7969 14.8594 41.9844
Q18.2656 44.1875 22.125 44.1875
Q25.7812 44.1875 28.7344 42.2344
Q31.6875 40.2812 32.9062 36.9219
Q34.625 39.9844 37.2812 42.0781
Q39.9375 44.1875 43.1094 44.1875
Q45.2656 44.1875 47.5 43.4219
Q49.75 42.6719 51.1719 41.1094
Q52.5938 39.5469 52.5938 37.2031
Q52.5938 34.6719 50.9531 32.8281
Q49.3125 31 46.7812 31
Q45.1719 31 44.0938 32.0312
Q43.0156 33.0625 43.0156 34.625
Q43.0156 36.7188 44.4531 38.2969
Q45.9062 39.8906 47.9062 40.1875
Q46.0938 41.6094 42.9219 41.6094
Q39.7031 41.6094 37.3281 38.625
Q34.9688 35.6406 33.9844 31.9844
L29.5938 14.3125
Q28.5156 10.2969 28.5156 7.71875
Q28.5156 5.17188 29.9531 3.34375
Q31.3906 1.51562 33.7969 1.51562
Q38.4844 1.51562 42.1562 5.64062
Q45.8438 9.76562 47.0156 14.7031
Q47.2188 15.2812 47.7969 15.2812
L49.0312 15.2812
Q49.4219 15.2812 49.6562 15.0156
Q49.9062 14.75 49.9062 14.4062
Q49.9062 14.3125 49.8125 14.1094
Q48.3906 8.15625 43.8438 3.51562
Q39.3125 -1.125 33.5938 -1.125
Q29.9375 -1.125 26.9844 0.84375
Q24.0312 2.82812 22.7969 6.20312
Q21.2344 3.26562 18.4688 1.0625
Q15.7188 -1.125 12.5938 -1.125
Q10.4531 -1.125 8.17188 -0.359375
Q5.90625 0.390625 4.48438 1.95312
Q3.07812 3.51562 3.07812 5.90625
Q3.07812 8.25 4.70312 10.1719
Q6.34375 12.1094 8.79688 12.1094
Q10.4531 12.1094 11.5781 11.1094
Q12.7031 10.1094 12.7031 8.5
Q12.7031 6.39062 11.2969 4.82812
Q9.90625 3.26562 7.8125 2.875" id="Cmmi10-78"/>
     </defs>
     <g transform="translate(187.13125 265.31484375)scale(0.15 -0.15)">
      <use transform="translate(0.0 0.8125)" xlink:href="#Cmmi10-78"/>
     </g>
    </g>
   </g>
   <g id="matplotlib.axis_2">
    <g id="ytick_1">
     <g id="line2d_29">
      <path clip-path="url(#p4fd10ad722)" d="
M24.0813 235.239
L358.881 235.239" style="fill:none;stroke:#000000;stroke-dasharray:1.000000,3.000000;stroke-dashoffset:0.0;stroke-width:0.5;"/>
     </g>
     <g id="line2d_30">
      <defs>
       <path d="
M0 0
L4 0" id="m728421d6d4" style="stroke:#000000;stroke-width:0.5;"/>
      </defs>
      <g>
       <use style="stroke:#000000;stroke-width:0.5;" x="24.08125" xlink:href="#m728421d6d4" y="235.2390625"/>
      </g>
     </g>
     <g id="line2d_31">
      <defs>
       <path d="
M0 0
L-4 0" id="mcb0005524f" style="stroke:#000000;stroke-width:0.5;"/>
      </defs>
      <g>
       <use style="stroke:#000000;stroke-width:0.5;" x="358.88125" xlink:href="#mcb0005524f" y="235.2390625"/>
      </g>
     </g>
     <g id="text_10">
      <!-- −3 -->
      <g transform="translate(7.2 237.9984375)scale(0.1 -0.1)">
       <use xlink:href="#DejaVuSans-2212"/>
       <use x="83.7890625" xlink:href="#DejaVuSans-33"/>
      </g>
     </g>
    </g>
    <g id="ytick_2">
     <g id="line2d_32">
      <path clip-path="url(#p4fd10ad722)" d="
M24.0813 190.599
L358.881 190.599" style="fill:none;stroke:#000000;stroke-dasharray:1.000000,3.000000;stroke-dashoffset:0.0;stroke-width:0.5;"/>
     </g>
     <g id="line2d_33">
      <g>
       <use style="stroke:#000000;stroke-width:0.5;" x="24.08125" xlink:href="#m728421d6d4" y="190.5990625"/>
      </g>
     </g>
     <g id="line2d_34">
      <g>
       <use style="stroke:#000000;stroke-width:0.5;" x="358.88125" xlink:href="#mcb0005524f" y="190.5990625"/>
      </g>
     </g>
     <g id="text_11">
      <!-- −2 -->
      <g transform="translate(7.4 193.3584375)scale(0.1 -0.1)">
       <use xlink:href="#DejaVuSans-2212"/>
       <use x="83.7890625" xlink:href="#DejaVuSans-32"/>
      </g>
     </g>
    </g>
    <g id="ytick_3">
     <g id="line2d_35">
      <path clip-path="url(#p4fd10ad722)" d="
M24.0813 145.959
L358.881 145.959" style="fill:none;stroke:#000000;stroke-dasharray:1.000000,3.000000;stroke-dashoffset:0.0;stroke-width:0.5;"/>
     </g>
     <g id="line2d_36">
      <g>
       <use style="stroke:#000000;stroke-width:0.5;" x="24.08125" xlink:href="#m728421d6d4" y="145.9590625"/>
      </g>
     </g>
     <g id="line2d_37">
      <g>
       <use style="stroke:#000000;stroke-width:0.5;" x="358.88125" xlink:href="#mcb0005524f" y="145.9590625"/>
      </g>
     </g>
     <g id="text_12">
      <!-- −1 -->
      <g transform="translate(7.321875 148.7184375)scale(0.1 -0.1)">
       <use xlink:href="#DejaVuSans-2212"/>
       <use x="83.7890625" xlink:href="#DejaVuSans-31"/>
      </g>
     </g>
    </g>
    <g id="ytick_4">
     <g id="line2d_38">
      <path clip-path="url(#p4fd10ad722)" d="
M24.0813 101.319
L358.881 101.319" style="fill:none;stroke:#000000;stroke-dasharray:1.000000,3.000000;stroke-dashoffset:0.0;stroke-width:0.5;"/>
     </g>
     <g id="line2d_39">
      <g>
       <use style="stroke:#000000;stroke-width:0.5;" x="24.08125" xlink:href="#m728421d6d4" y="101.3190625"/>
      </g>
     </g>
     <g id="line2d_40">
      <g>
       <use style="stroke:#000000;stroke-width:0.5;" x="358.88125" xlink:href="#mcb0005524f" y="101.3190625"/>
      </g>
     </g>
     <g id="text_13">
      <!-- 0 -->
      <g transform="translate(15.0421875 104.0784375)scale(0.1 -0.1)">
       <use xlink:href="#DejaVuSans-30"/>
      </g>
     </g>
    </g>
    <g id="ytick_5">
     <g id="line2d_41">
      <path clip-path="url(#p4fd10ad722)" d="
M24.0813 56.6791
L358.881 56.6791" style="fill:none;stroke:#000000;stroke-dasharray:1.000000,3.000000;stroke-dashoffset:0.0;stroke-width:0.5;"/>
     </g>
     <g id="line2d_42">
      <g>
       <use style="stroke:#000000;stroke-width:0.5;" x="24.08125" xlink:href="#m728421d6d4" y="56.6790625"/>
      </g>
     </g>
     <g id="line2d_43">
      <g>
       <use style="stroke:#000000;stroke-width:0.5;" x="358.88125" xlink:href="#mcb0005524f" y="56.6790625"/>
      </g>
     </g>
     <g id="text_14">
      <!-- 1 -->
      <g transform="translate(15.740625 59.4384375)scale(0.1 -0.1)">
       <use xlink:href="#DejaVuSans-31"/>
      </g>
     </g>
    </g>
    <g id="ytick_6">
     <g id="line2d_44">
      <path clip-path="url(#p4fd10ad722)" d="
M24.0813 12.0391
L358.881 12.0391" style="fill:none;stroke:#000000;stroke-dasharray:1.000000,3.000000;stroke-dashoffset:0.0;stroke-width:0.5;"/>
     </g>
     <g id="line2d_45">
      <g>
       <use style="stroke:#000000;stroke-width:0.5;" x="24.08125" xlink:href="#m728421d6d4" y="12.0390625"/>
      </g>
     </g>
     <g id="line2d_46">
      <g>
       <use style="stroke:#000000;stroke-width:0.5;" x="358.88125" xlink:href="#mcb0005524f" y="12.0390625"/>
      </g>
     </g>
     <g id="text_15">
      <!-- 2 -->
      <g transform="translate(15.453125 14.7984375)scale(0.1 -0.1)">
       <use xlink:href="#DejaVuSans-32"/>
      </g>
     </g>
    </g>
   </g>
   <g id="legend_1">
    <g id="patch_7">
     <path d="
M266.622 100.665
L352.881 100.665
L352.881 18.0391
L266.622 18.0391
z
" style="fill:#ffffff;stroke:#000000;stroke-linejoin:miter;"/>
    </g>
    <g id="line2d_47">
     <path d="
M275.022 27.7572
L291.822 27.7572" style="fill:none;stroke:#000000;stroke-linecap:square;"/>
    </g>
    <g id="line2d_48"/>
    <g id="text_16">
     <!-- surface -->
     <defs>
      <path d="
M56.2031 29.5938
L56.2031 25.2031
L14.8906 25.2031
Q15.4844 15.9219 20.4844 11.0625
Q25.4844 6.20312 34.4219 6.20312
Q39.5938 6.20312 44.4531 7.46875
Q49.3125 8.73438 54.1094 11.2812
L54.1094 2.78125
Q49.2656 0.734375 44.1875 -0.34375
Q39.1094 -1.42188 33.8906 -1.42188
Q20.7969 -1.42188 13.1562 6.1875
Q5.51562 13.8125 5.51562 26.8125
Q5.51562 40.2344 12.7656 48.1094
Q20.0156 56 32.3281 56
Q43.3594 56 49.7812 48.8906
Q56.2031 41.7969 56.2031 29.5938
M47.2188 32.2344
Q47.125 39.5938 43.0938 43.9844
Q39.0625 48.3906 32.4219 48.3906
Q24.9062 48.3906 20.3906 44.1406
Q15.875 39.8906 15.1875 32.1719
z
" id="DejaVuSans-65"/>
      <path d="
M37.1094 75.9844
L37.1094 68.5
L28.5156 68.5
Q23.6875 68.5 21.7969 66.5469
Q19.9219 64.5938 19.9219 59.5156
L19.9219 54.6875
L34.7188 54.6875
L34.7188 47.7031
L19.9219 47.7031
L19.9219 0
L10.8906 0
L10.8906 47.7031
L2.29688 47.7031
L2.29688 54.6875
L10.8906 54.6875
L10.8906 58.5
Q10.8906 67.625 15.1406 71.7969
Q19.3906 75.9844 28.6094 75.9844
z
" id="DejaVuSans-66"/>
      <path d="
M8.5 21.5781
L8.5 54.6875
L17.4844 54.6875
L17.4844 21.9219
Q17.4844 14.1562 20.5 10.2656
Q23.5312 6.39062 29.5938 6.39062
Q36.8594 6.39062 41.0781 11.0312
Q45.3125 15.6719 45.3125 23.6875
L45.3125 54.6875
L54.2969 54.6875
L54.2969 0
L45.3125 0
L45.3125 8.40625
Q42.0469 3.42188 37.7188 1
Q33.4062 -1.42188 27.6875 -1.42188
Q18.2656 -1.42188 13.375 4.4375
Q8.5 10.2969 8.5 21.5781
M31.1094 56
z
" id="DejaVuSans-75"/>
      <path d="
M41.1094 46.2969
Q39.5938 47.1719 37.8125 47.5781
Q36.0312 48 33.8906 48
Q26.2656 48 22.1875 43.0469
Q18.1094 38.0938 18.1094 28.8125
L18.1094 0
L9.07812 0
L9.07812 54.6875
L18.1094 54.6875
L18.1094 46.1875
Q20.9531 51.1719 25.4844 53.5781
Q30.0312 56 36.5312 56
Q37.4531 56 38.5781 55.875
Q39.7031 55.7656 41.0625 55.5156
z
" id="DejaVuSans-72"/>
      <path d="
M48.7812 52.5938
L48.7812 44.1875
Q44.9688 46.2969 41.1406 47.3438
Q37.3125 48.3906 33.4062 48.3906
Q24.6562 48.3906 19.8125 42.8438
Q14.9844 37.3125 14.9844 27.2969
Q14.9844 17.2812 19.8125 11.7344
Q24.6562 6.20312 33.4062 6.20312
Q37.3125 6.20312 41.1406 7.25
Q44.9688 8.29688 48.7812 10.4062
L48.7812 2.09375
Q45.0156 0.34375 40.9844 -0.53125
Q36.9688 -1.42188 32.4219 -1.42188
Q20.0625 -1.42188 12.7812 6.34375
Q5.51562 14.1094 5.51562 27.2969
Q5.51562 40.6719 12.8594 48.3281
Q20.2188 56 33.0156 56
Q37.1562 56 41.1094 55.1406
Q45.0625 54.2969 48.7812 52.5938" id="DejaVuSans-63"/>
      <path d="
M44.2812 53.0781
L44.2812 44.5781
Q40.4844 46.5312 36.375 47.5
Q32.2812 48.4844 27.875 48.4844
Q21.1875 48.4844 17.8438 46.4375
Q14.5 44.3906 14.5 40.2812
Q14.5 37.1562 16.8906 35.375
Q19.2812 33.5938 26.5156 31.9844
L29.5938 31.2969
Q39.1562 29.25 43.1875 25.5156
Q47.2188 21.7812 47.2188 15.0938
Q47.2188 7.46875 41.1875 3.01562
Q35.1562 -1.42188 24.6094 -1.42188
Q20.2188 -1.42188 15.4531 -0.5625
Q10.6875 0.296875 5.42188 2
L5.42188 11.2812
Q10.4062 8.6875 15.2344 7.39062
Q20.0625 6.10938 24.8125 6.10938
Q31.1562 6.10938 34.5625 8.28125
Q37.9844 10.4531 37.9844 14.4062
Q37.9844 18.0625 35.5156 20.0156
Q33.0625 21.9688 24.7031 23.7812
L21.5781 24.5156
Q13.2344 26.2656 9.51562 29.9062
Q5.8125 33.5469 5.8125 39.8906
Q5.8125 47.6094 11.2812 51.7969
Q16.75 56 26.8125 56
Q31.7812 56 36.1719 55.2656
Q40.5781 54.5469 44.2812 53.0781" id="DejaVuSans-73"/>
      <path d="
M34.2812 27.4844
Q23.3906 27.4844 19.1875 25
Q14.9844 22.5156 14.9844 16.5
Q14.9844 11.7188 18.1406 8.90625
Q21.2969 6.10938 26.7031 6.10938
Q34.1875 6.10938 38.7031 11.4062
Q43.2188 16.7031 43.2188 25.4844
L43.2188 27.4844
z

M52.2031 31.2031
L52.2031 0
L43.2188 0
L43.2188 8.29688
Q40.1406 3.32812 35.5469 0.953125
Q30.9531 -1.42188 24.3125 -1.42188
Q15.9219 -1.42188 10.9531 3.29688
Q6 8.01562 6 15.9219
Q6 25.1406 12.1719 29.8281
Q18.3594 34.5156 30.6094 34.5156
L43.2188 34.5156
L43.2188 35.4062
Q43.2188 41.6094 39.1406 45
Q35.0625 48.3906 27.6875 48.3906
Q23 48.3906 18.5469 47.2656
Q14.1094 46.1406 10.0156 43.8906
L10.0156 52.2031
Q14.9375 54.1094 19.5781 55.0469
Q24.2188 56 28.6094 56
Q40.4844 56 46.3438 49.8438
Q52.2031 43.7031 52.2031 31.2031" id="DejaVuSans-61"/>
     </defs>
     <g transform="translate(305.021875 31.9571875)scale(0.12 -0.12)">
      <use xlink:href="#DejaVuSans-73"/>
      <use x="52.099609375" xlink:href="#DejaVuSans-75"/>
      <use x="115.478515625" xlink:href="#DejaVuSans-72"/>
      <use x="156.591796875" xlink:href="#DejaVuSans-66"/>
      <use x="191.796875" xlink:href="#DejaVuSans-61"/>
      <use x="253.076171875" xlink:href="#DejaVuSans-63"/>
      <use x="308.056640625" xlink:href="#DejaVuSans-65"/>
     </g>
    </g>
    <g id="line2d_49">
     <path d="
M275.022 48.3728
L291.822 48.3728" style="fill:none;stroke:#0000ff;stroke-linecap:square;"/>
    </g>
    <g id="line2d_50"/>
    <g id="text_17">
     <!-- $\frac{\phi}{r_K u_{\infty}}$ -->
     <defs>
      <path d="
M7.71875 1.70312
Q7.71875 2.29688 7.8125 2.59375
L15.2812 32.4219
Q16.0156 35.2031 16.0156 37.3125
Q16.0156 41.6094 13.0938 41.6094
Q9.96875 41.6094 8.45312 37.8594
Q6.9375 34.125 5.51562 28.4219
Q5.51562 28.125 5.21875 27.9531
Q4.9375 27.7812 4.6875 27.7812
L3.51562 27.7812
Q3.17188 27.7812 2.92188 28.1406
Q2.6875 28.5156 2.6875 28.8125
Q3.76562 33.1562 4.76562 36.1719
Q5.76562 39.2031 7.89062 41.6875
Q10.0156 44.1875 13.1875 44.1875
Q16.6562 44.1875 19.2656 42.1875
Q21.875 40.1875 22.5156 36.9219
Q25.0469 40.2344 28.2969 42.2031
Q31.5469 44.1875 35.4062 44.1875
Q38.5781 44.1875 40.9844 42.3281
Q43.4062 40.4844 43.4062 37.3125
Q43.4062 34.7656 41.8125 32.875
Q40.2344 31 37.5938 31
Q35.9844 31 34.8906 32
Q33.7969 33.0156 33.7969 34.625
Q33.7969 36.8125 35.4062 38.5469
Q37.0156 40.2812 39.1094 40.2812
Q37.5 41.6094 35.2031 41.6094
Q30.9062 41.6094 27.7344 38.5469
Q24.5625 35.5 22.0156 30.8125
L14.8906 2.20312
Q14.5469 0.828125 13.3438 -0.140625
Q12.1562 -1.125 10.6875 -1.125
Q9.46875 -1.125 8.59375 -0.34375
Q7.71875 0.4375 7.71875 1.70312" id="Cmmi10-72"/>
      <path d="
M24.6094 -1.125
Q18.9531 -1.125 14.5781 2.1875
Q10.2031 5.51562 7.90625 10.7812
Q5.60938 16.0625 5.60938 21.5781
Q5.60938 25.8281 6.95312 29.875
Q8.29688 33.9375 10.8281 37.1562
Q13.375 40.375 16.9688 42.2812
Q20.5625 44.1875 24.9062 44.1875
Q29.3906 44.1875 33.5938 42.4688
Q37.7969 40.7656 41.2812 37.9375
Q44.7812 35.1094 47.7969 31.3906
L50.7812 27.3906
Q53.7656 32.125 57.375 35.8594
Q60.9844 39.5938 65.5469 41.8906
Q70.125 44.1875 75.2969 44.1875
Q79.6406 44.1875 83.2031 42.25
Q86.7656 40.3281 89.25 37
Q91.75 33.6875 93.0156 29.6562
Q94.2812 25.6406 94.2812 21.5781
Q94.2812 15.9219 91.9062 10.6719
Q89.5469 5.42188 85.1719 2.14062
Q80.8125 -1.125 75 -1.125
Q68.4531 -1.125 62.5625 2.39062
Q56.6875 5.90625 52.0938 11.7188
L49.125 15.7188
Q44.5312 8.25 38.2969 3.5625
Q32.0781 -1.125 24.6094 -1.125
M23.5781 2.39062
Q36.2812 2.39062 46.2969 19.3906
L41.0156 26.125
Q36.4219 32.1719 32.4688 35.5938
Q28.5156 39.0156 23.2969 39.0156
Q18.8438 39.0156 15.4062 36.5
Q11.9688 33.9844 10.0781 29.9219
Q8.20312 25.875 8.20312 21.4844
Q8.20312 18.1094 9.25 14.7188
Q10.2969 11.3281 12.2969 8.54688
Q14.3125 5.76562 17.1562 4.07812
Q20.0156 2.39062 23.5781 2.39062
M58.8906 17
Q63.4844 10.9375 67.4375 7.51562
Q71.3906 4.10938 76.6094 4.10938
Q79.9375 4.10938 82.7188 5.5625
Q85.5 7.03125 87.5156 9.51562
Q89.5469 12.0156 90.625 15.1406
Q91.7031 18.2656 91.7031 21.5781
Q91.7031 26.2188 89.8438 30.6406
Q87.9844 35.0625 84.4844 37.8906
Q81 40.7188 76.3125 40.7188
Q63.625 40.7188 53.6094 23.6875
z
" id="Cmsy10-31"/>
      <path d="
M10.5938 10.8906
Q10.5938 14.1562 11.4688 17.5938
Q12.3594 21.0469 13.9375 25.2656
Q15.5312 29.5 16.7031 32.625
Q18.0156 36.2812 18.0156 38.625
Q18.0156 41.6094 15.8281 41.6094
Q11.8594 41.6094 9.29688 37.5312
Q6.73438 33.4531 5.51562 28.4219
Q5.32812 27.7812 4.6875 27.7812
L3.51562 27.7812
Q2.6875 27.7812 2.6875 28.7188
L2.6875 29
Q4.29688 34.9688 7.60938 39.5781
Q10.9375 44.1875 16.0156 44.1875
Q19.5781 44.1875 22.0469 41.8438
Q24.5156 39.5 24.5156 35.8906
Q24.5156 34.0312 23.6875 31.9844
Q23.25 30.7656 21.6875 26.6562
Q20.125 22.5625 19.2812 19.875
Q18.4531 17.1875 17.9219 14.5938
Q17.3906 12.0156 17.3906 9.42188
Q17.3906 6.10938 18.7969 3.8125
Q20.2188 1.51562 23.3906 1.51562
Q29.7812 1.51562 34.625 9.42188
Q34.7188 9.8125 34.7812 10.1719
Q34.8594 10.5469 34.9062 10.8906
L42.0938 39.8906
Q42.4375 41.2188 43.6562 42.1562
Q44.875 43.1094 46.2969 43.1094
Q47.5156 43.1094 48.4062 42.3281
Q49.3125 41.5469 49.3125 40.2812
Q49.3125 39.7031 49.2188 39.5
L42 10.6875
Q41.3125 7.71875 41.3125 5.8125
Q41.3125 1.51562 44.1875 1.51562
Q47.4062 1.51562 49 5.48438
Q50.5938 9.46875 51.7031 14.7031
Q51.9062 15.2812 52.4844 15.2812
L53.7188 15.2812
Q54.1094 15.2812 54.3438 14.9375
Q54.5938 14.5938 54.5938 14.3125
Q53.5156 10.0156 52.5156 6.9375
Q51.5156 3.85938 49.3594 1.35938
Q47.2188 -1.125 44 -1.125
Q40.8281 -1.125 38.3125 0.609375
Q35.7969 2.34375 34.9062 5.32812
Q32.625 2.39062 29.5938 0.625
Q26.5625 -1.125 23.1875 -1.125
Q17.4375 -1.125 14.0156 2.01562
Q10.5938 5.17188 10.5938 10.8906" id="Cmmi10-75"/>
      <path d="
M4.6875 0
Q3.71875 0 3.71875 1.3125
Q3.76562 1.5625 3.90625 2.17188
Q4.04688 2.78125 4.3125 3.14062
Q4.59375 3.51562 4.98438 3.51562
Q11.0781 3.51562 13.4844 4.20312
Q14.7969 4.64062 15.375 6.89062
L29.1094 61.8125
Q29.2969 62.7969 29.2969 63.1875
Q29.2969 64.2656 28.0781 64.4062
Q26.2188 64.7969 20.9062 64.7969
Q19.9219 64.7969 19.9219 66.1094
Q20.2656 67.3906 20.4531 67.8438
Q20.6562 68.3125 21.5781 68.3125
L48.4844 68.3125
Q49.5156 68.3125 49.5156 67
Q49.4688 66.75 49.3125 66.1562
Q49.1719 65.5781 48.9219 65.1875
Q48.6875 64.7969 48.1875 64.7969
Q42.0938 64.7969 39.7031 64.1094
Q38.375 63.625 37.7969 61.375
L29.6875 29
L68.8906 59.2812
Q69 59.4688 70.1406 60.6094
Q71.2969 61.7656 71.2969 62.8906
Q71.2969 64.7969 67.9219 64.7969
Q66.8906 64.7969 66.8906 66.1094
Q67.0938 66.8906 67.2031 67.3281
Q67.3281 67.7812 67.6406 68.0469
Q67.9688 68.3125 68.6094 68.3125
L87.9844 68.3125
Q88.5312 68.3125 88.7656 67.9219
Q89.0156 67.5312 89.0156 67
Q88.9688 66.75 88.7969 66.1094
Q88.625 65.4844 88.3594 65.1406
Q88.0938 64.7969 87.5938 64.7969
Q80.2812 64.7969 71.5781 58.0156
Q71.5312 57.9531 71.4375 57.9219
Q71.3438 57.9062 71.2344 57.875
Q71.1406 57.8594 71.0938 57.8125
L50.4844 41.7969
L65.4844 6.6875
Q66.8438 4.5 68.4062 4
Q69.9688 3.51562 73.1875 3.51562
Q74.2188 3.51562 74.2188 2.20312
Q73.9219 1.03125 73.625 0.515625
Q73.3438 0 72.5156 0
L49.3125 0
Q48.3906 0 48.3906 1.3125
Q48.5312 2.34375 48.7188 2.92188
Q48.9219 3.51562 49.7031 3.51562
Q52.25 3.51562 54.0312 4.03125
Q55.8125 4.54688 55.8125 6.39062
Q55.8125 7.07812 55.7188 7.42188
L43.3125 36.2812
L28.7188 25
L24.125 6.5
Q23.875 5.28125 23.875 5.07812
Q23.875 4.04688 25.0938 3.90625
Q27 3.51562 32.3281 3.51562
Q33.2969 3.51562 33.2969 2.20312
Q32.9531 0.78125 32.75 0.390625
Q32.5625 0 31.5938 0
z
" id="Cmmi10-4b"/>
      <path d="
M19.3906 -19.4844
L23.875 -1.42188
Q18.7969 -1.42188 14.4062 0.953125
Q10.0156 3.32812 7.34375 7.5625
Q4.6875 11.8125 4.6875 16.7969
Q4.6875 22.2188 7.375 27.1406
Q10.0625 32.0781 14.7188 36.1094
Q19.3906 40.1406 24.75 42.3125
Q30.125 44.4844 35.4062 44.4844
L41.4062 68.7969
Q41.6094 69.3906 42.1875 69.3906
L43.4062 69.3906
Q43.7969 69.3906 44.0312 69.0469
Q44.2812 68.7031 44.2812 68.4062
L38.2812 44.4844
Q42.0469 44.4844 45.5625 43.1094
Q49.0781 41.75 51.7812 39.2812
Q54.5 36.8125 56 33.4688
Q57.5156 30.125 57.5156 26.3125
Q57.5156 20.9062 54.8281 15.9688
Q52.1562 11.0312 47.6094 7.07812
Q43.0625 3.125 37.4688 0.84375
Q31.8906 -1.42188 26.8125 -1.42188
L22.2188 -19.9219
Q22.0156 -20.5156 21.3906 -20.5156
L20.2188 -20.5156
Q19.8281 -20.5156 19.6094 -20.1406
Q19.3906 -19.7812 19.3906 -19.4844
M24.5156 1.21875
L34.7188 41.8906
Q32.1719 41.8906 29.3906 40.8594
Q26.6094 39.8438 24.1406 38.2812
Q21.6875 36.7188 19.6719 34.7188
Q17.2344 32.2812 15.375 28.9531
Q13.5312 25.6406 12.5781 21.9531
Q11.625 18.2656 11.625 14.7031
Q11.625 10.9375 13.2344 7.85938
Q14.8438 4.78125 17.7656 3
Q20.7031 1.21875 24.5156 1.21875
M27.4844 1.21875
Q31.25 1.21875 35.5 3.35938
Q39.75 5.51562 42.4844 8.40625
Q46.2344 12.1094 48.4062 17.5
Q50.5938 22.9062 50.5938 28.4219
Q50.5938 32.125 48.9688 35.2188
Q47.3594 38.3281 44.4219 40.1094
Q41.5 41.8906 37.7031 41.8906
z
" id="Cmmi10-c1"/>
     </defs>
     <g transform="translate(305.021875 52.5728125)scale(0.12 -0.12)">
      <use transform="translate(69.0 52.4265625)scale(0.7)" xlink:href="#Cmmi10-c1"/>
      <use transform="translate(0.0 -24.115625)scale(0.7)" xlink:href="#Cmmi10-72"/>
      <use transform="translate(31.58203125 -41.9721875)scale(0.49)" xlink:href="#Cmmi10-4b"/>
      <use transform="translate(91.0205078125 -24.115625)scale(0.7)" xlink:href="#Cmmi10-75"/>
      <use transform="translate(131.044921875 -41.9721875)scale(0.49)" xlink:href="#Cmsy10-31"/>
      <path d="
M0 13.0656
L0 19.3156
L180.045 19.3156
L180.045 13.0656
L0 13.0656
z
"/>
     </g>
    </g>
    <g id="line2d_51">
     <path d="
M275.022 68.7709
L291.822 68.7709" style="fill:none;stroke:#ff0000;stroke-linecap:square;"/>
    </g>
    <g id="line2d_52"/>
    <g id="text_18">
     <!-- $\frac{u}{u_{\infty}}$ -->
     <g transform="translate(305.021875 72.9709375)scale(0.12 -0.12)">
      <use transform="translate(25.0 39.06875)scale(0.7)" xlink:href="#Cmmi10-75"/>
      <use transform="translate(0.0 -23.9)scale(0.7)" xlink:href="#Cmmi10-75"/>
      <use transform="translate(40.0244140625 -41.7565625)scale(0.49)" xlink:href="#Cmsy10-31"/>
      <path d="
M0 13.2812
L0 19.5312
L89.0244 19.5312
L89.0244 13.2812
L0 13.2812
z
"/>
     </g>
    </g>
    <g id="line2d_53">
     <path d="
M275.022 89.1691
L291.822 89.1691" style="fill:none;stroke:#008000;stroke-linecap:square;"/>
    </g>
    <g id="line2d_54"/>
    <g id="text_19">
     <!-- $cp$ -->
     <defs>
      <path d="
M11.7188 11.9219
Q11.7188 7.5625 13.9375 4.53125
Q16.1562 1.51562 20.3125 1.51562
Q26.2656 1.51562 31.75 4.25
Q37.25 6.98438 40.7188 11.8125
Q41.0156 12.1094 41.5 12.1094
Q42 12.1094 42.5 11.5469
Q43.0156 10.9844 43.0156 10.5
Q43.0156 10.1094 42.8281 9.90625
Q39.1562 4.78125 32.9531 1.82812
Q26.7656 -1.125 20.125 -1.125
Q15.3281 -1.125 11.6719 1.14062
Q8.01562 3.42188 6 7.21875
Q4 11.0312 4 15.8281
Q4 22.5625 7.76562 29.2031
Q11.5312 35.8438 17.7812 40.0156
Q24.0312 44.1875 30.9062 44.1875
Q35.4062 44.1875 38.9844 42.0156
Q42.5781 39.8438 42.5781 35.5938
Q42.5781 32.8594 40.9844 30.9219
Q39.4062 29 36.7188 29
Q35.1094 29 34 30
Q32.9062 31 32.9062 32.625
Q32.9062 34.9688 34.6094 36.625
Q36.3281 38.2812 38.625 38.2812
L38.8125 38.2812
Q37.6406 39.9844 35.4219 40.7969
Q33.2031 41.6094 30.8125 41.6094
Q24.9531 41.6094 20.5469 36.5938
Q16.1562 31.5938 13.9375 24.625
Q11.7188 17.6719 11.7188 11.9219" id="Cmmi10-63"/>
      <path d="
M-2.48438 -19.3906
Q-3.42188 -19.3906 -3.42188 -18.1094
Q-3.07812 -15.9219 -2.09375 -15.9219
Q1.03125 -15.9219 2.26562 -15.3594
Q3.51562 -14.7969 4.20312 -12.5
L15.4844 32.5156
Q16.2188 34.375 16.2188 37.3125
Q16.2188 41.6094 13.2812 41.6094
Q10.1562 41.6094 8.64062 37.8594
Q7.125 34.125 5.71875 28.4219
Q5.71875 27.7812 4.89062 27.7812
L3.71875 27.7812
Q3.46875 27.7812 3.17188 28.1406
Q2.875 28.5156 2.875 28.8125
Q3.95312 33.1562 4.95312 36.1719
Q5.95312 39.2031 8.07812 41.6875
Q10.2031 44.1875 13.375 44.1875
Q16.7969 44.1875 19.375 42.25
Q21.9688 40.3281 22.7031 37.0156
Q25.4375 40.1875 28.75 42.1875
Q32.0781 44.1875 35.5938 44.1875
Q39.7969 44.1875 42.8906 41.9375
Q46 39.7031 47.5625 36.0625
Q49.125 32.4219 49.125 28.2188
Q49.125 21.7812 45.8281 14.8906
Q42.5312 8.01562 36.8906 3.4375
Q31.25 -1.125 24.8125 -1.125
Q21.875 -1.125 19.5 0.53125
Q17.1406 2.20312 15.8281 4.89062
L11.2812 -12.8906
Q11.0312 -14.3594 10.9844 -14.5938
Q10.9844 -15.9219 17.5781 -15.9219
Q18.6094 -15.9219 18.6094 -17.1875
Q18.2656 -18.5 18.0469 -18.9375
Q17.8281 -19.3906 16.8906 -19.3906
z

M24.9062 1.51562
Q28.375 1.51562 31.3438 4.375
Q34.3281 7.23438 36.1875 10.7969
Q37.5469 13.4844 38.7344 17.3594
Q39.9375 21.2344 40.8125 25.625
Q41.7031 30.0312 41.7031 32.625
Q41.7031 34.9062 41.0938 36.9062
Q40.4844 38.9219 39.0938 40.2656
Q37.7031 41.6094 35.4062 41.6094
Q31.7344 41.6094 28.4844 38.9844
Q25.25 36.375 22.6094 32.5156
L22.6094 32.1719
L17.0938 10.1094
Q17.7812 6.54688 19.7344 4.03125
Q21.6875 1.51562 24.9062 1.51562" id="Cmmi10-70"/>
     </defs>
     <g transform="translate(305.021875 93.3690625)scale(0.12 -0.12)">
      <use transform="translate(0.0 0.8125)" xlink:href="#Cmmi10-63"/>
      <use transform="translate(43.212890625 0.8125)" xlink:href="#Cmmi10-70"/>
     </g>
    </g>
   </g>
  </g>
 </g>
 <defs>
  <clipPath id="p4fd10ad722">
   <rect height="223.2" width="334.8" x="24.08125" y="12.0390625"/>
  </clipPath>
 </defs>
</svg>
