<?xml version="1.0" encoding="utf-8" standalone="no"?>
<!DOCTYPE svg PUBLIC "-//W3C//DTD SVG 1.1//EN"
  "http://www.w3.org/Graphics/SVG/1.1/DTD/svg11.dtd">
<!-- Created with matplotlib (http://matplotlib.org/) -->
<svg height="275pt" version="1.1" viewBox="0 0 487 275" width="487pt" xmlns="http://www.w3.org/2000/svg" xmlns:xlink="http://www.w3.org/1999/xlink">
 <defs>
  <style type="text/css">
*{stroke-linecap:butt;stroke-linejoin:round;}
  </style>
 </defs>
 <g id="figure_1">
  <g id="patch_1">
   <path d="
M0 275.634
L487.359 275.634
L487.359 0
L0 0
z
" style="fill:none;"/>
  </g>
  <g id="axes_1">
   <g id="patch_2">
    <path d="
M33.7594 235.239
L480.159 235.239
L480.159 12.0391
L33.7594 12.0391
z
" style="fill:none;"/>
   </g>
   <g id="line2d_1">
    <path clip-path="url(#p3661175a4b)" d="
M475.307 109.083
L474.837 109.037
L473.437 108.889
L471.127 108.627
L467.932 108.238
L463.88 107.717
L459.007 107.058
L453.35 106.261
L446.949 105.328
L439.847 104.264
L432.091 103.078
L423.726 101.781
L414.801 100.385
L405.364 98.9061
L395.465 97.3609
L385.152 95.7676
L374.475 94.1454
L363.482 92.5141
L352.22 90.8938
L340.738 89.3045
L329.082 87.7659
L317.297 86.2971
L305.428 84.9164
L293.518 83.6408
L281.61 82.4865
L269.746 81.4677
L257.966 80.5975
L246.309 79.8872
L234.813 79.3462
L223.515 78.9822
L212.451 78.801
L201.655 78.8066
L191.161 79.001
L181.001 79.3842
L171.207 79.9547
L161.806 80.7089
L152.829 81.6416
L144.301 82.7458
L136.249 84.0129
L128.697 85.4331
L121.668 86.9949
L115.183 88.6855
L109.262 90.4911
L103.924 92.3967
L99.1862 94.3867
L95.0632 96.4443
L91.5692 98.5524
L88.7165 100.693
L86.5158 102.849
L84.976 105.001
L84.1043 107.133
L83.9066 109.224
L84.3865 111.259
L85.5464 113.22
L87.3866 115.091
L89.9058 116.856
L93.1008 118.5
L96.9666 120.011
L101.496 121.376
L106.681 122.584
L112.51 123.628
L118.971 124.5
L126.048 125.194
L133.726 125.708
L141.984 126.04
L150.801 126.191
L160.154 126.165
L170.017 125.967
L180.36 125.605
L191.153 125.089
L202.362 124.431
L213.949 123.645
L225.875 122.746
L238.098 121.752
L250.572 120.681
L263.249 119.555
L276.077 118.392
L289.002 117.214
L301.967 116.042
L314.912 114.896
L327.776 113.795
L340.495 112.758
L353.004 111.8
L365.236 110.935
L377.125 110.175
L388.605 109.527
L399.608 108.996
L410.072 108.584
L419.933 108.288
L429.133 108.102
L437.617 108.018
L445.334 108.023
L452.238 108.102
L458.291 108.237
L463.457 108.409
L467.712 108.597
L471.033 108.779
L473.409 108.935
L474.834 109.042
L475.307 109.083" style="fill:none;stroke:#000000;stroke-linecap:square;"/>
    <defs>
     <path d="
M-3 3
L3 -3
M-3 -3
L3 3" id="ma522d921c7" style="stroke:#000000;stroke-width:0.5;"/>
    </defs>
    <g clip-path="url(#p3661175a4b)">
     <use style="stroke:#000000;stroke-width:0.5;" x="475.307201087" xlink:href="#ma522d921c7" y="109.082540761"/>
     <use style="stroke:#000000;stroke-width:0.5;" x="474.837229216" xlink:href="#ma522d921c7" y="109.036778079"/>
     <use style="stroke:#000000;stroke-width:0.5;" x="473.43743944" xlink:href="#ma522d921c7" y="108.889240899"/>
     <use style="stroke:#000000;stroke-width:0.5;" x="471.127334279" xlink:href="#ma522d921c7" y="108.626537602"/>
     <use style="stroke:#000000;stroke-width:0.5;" x="467.931767599" xlink:href="#ma522d921c7" y="108.238156191"/>
     <use style="stroke:#000000;stroke-width:0.5;" x="463.880407595" xlink:href="#ma522d921c7" y="107.716682265"/>
     <use style="stroke:#000000;stroke-width:0.5;" x="459.007171852" xlink:href="#ma522d921c7" y="107.057923099"/>
     <use style="stroke:#000000;stroke-width:0.5;" x="453.34965208" xlink:href="#ma522d921c7" y="106.260940754"/>
     <use style="stroke:#000000;stroke-width:0.5;" x="446.948544288" xlink:href="#ma522d921c7" y="105.32800031"/>
     <use style="stroke:#000000;stroke-width:0.5;" x="439.847097899" xlink:href="#ma522d921c7" y="104.264441763"/>
     <use style="stroke:#000000;stroke-width:0.5;" x="432.090594706" xlink:href="#ma522d921c7" y="103.07848589"/>
     <use style="stroke:#000000;stroke-width:0.5;" x="423.725865891" xlink:href="#ma522d921c7" y="101.780985435"/>
     <use style="stroke:#000000;stroke-width:0.5;" x="414.800852712" xlink:href="#ma522d921c7" y="100.385133385"/>
     <use style="stroke:#000000;stroke-width:0.5;" x="405.364214018" xlink:href="#ma522d921c7" y="98.9061399342"/>
     <use style="stroke:#000000;stroke-width:0.5;" x="395.464981661" xlink:href="#ma522d921c7" y="97.3608891665"/>
     <use style="stroke:#000000;stroke-width:0.5;" x="385.15226303" xlink:href="#ma522d921c7" y="95.7675855401"/>
     <use style="stroke:#000000;stroke-width:0.5;" x="374.47498855" xlink:href="#ma522d921c7" y="94.1453991114"/>
     <use style="stroke:#000000;stroke-width:0.5;" x="363.48170089" xlink:href="#ma522d921c7" y="92.5141171535"/>
     <use style="stroke:#000000;stroke-width:0.5;" x="352.220381928" xlink:href="#ma522d921c7" y="90.8938085141"/>
     <use style="stroke:#000000;stroke-width:0.5;" x="340.738313087" xlink:href="#ma522d921c7" y="89.3045057643"/>
     <use style="stroke:#000000;stroke-width:0.5;" x="329.081964479" xlink:href="#ma522d921c7" y="87.7659089852"/>
     <use style="stroke:#000000;stroke-width:0.5;" x="317.296908359" xlink:href="#ma522d921c7" y="86.2971139429"/>
     <use style="stroke:#000000;stroke-width:0.5;" x="305.427752564" xlink:href="#ma522d921c7" y="84.9163664425"/>
     <use style="stroke:#000000;stroke-width:0.5;" x="293.518089948" xlink:href="#ma522d921c7" y="83.640843833"/>
     <use style="stroke:#000000;stroke-width:0.5;" x="281.610460197" xlink:href="#ma522d921c7" y="82.4864639587"/>
     <use style="stroke:#000000;stroke-width:0.5;" x="269.746320857" xlink:href="#ma522d921c7" y="81.4677213124"/>
     <use style="stroke:#000000;stroke-width:0.5;" x="257.966024851" xlink:href="#ma522d921c7" y="80.5975497235"/>
     <use style="stroke:#000000;stroke-width:0.5;" x="246.308802195" xlink:href="#ma522d921c7" y="79.8872106078"/>
     <use style="stroke:#000000;stroke-width:0.5;" x="234.812744063" xlink:href="#ma522d921c7" y="79.3462055865"/>
     <use style="stroke:#000000;stroke-width:0.5;" x="223.514787741" xlink:href="#ma522d921c7" y="78.9822121431"/>
     <use style="stroke:#000000;stroke-width:0.5;" x="212.45070135" xlink:href="#ma522d921c7" y="78.8010409125"/>
     <use style="stroke:#000000;stroke-width:0.5;" x="201.655067549" xlink:href="#ma522d921c7" y="78.8066131688"/>
     <use style="stroke:#000000;stroke-width:0.5;" x="191.161265691" xlink:href="#ma522d921c7" y="79.000957094"/>
     <use style="stroke:#000000;stroke-width:0.5;" x="181.001452133" xlink:href="#ma522d921c7" y="79.3842214451"/>
     <use style="stroke:#000000;stroke-width:0.5;" x="171.206538601" xlink:href="#ma522d921c7" y="79.9547053026"/>
     <use style="stroke:#000000;stroke-width:0.5;" x="161.806168639" xlink:href="#ma522d921c7" y="80.7089026495"/>
     <use style="stroke:#000000;stroke-width:0.5;" x="152.828692316" xlink:href="#ma522d921c7" y="81.6415606147"/>
     <use style="stroke:#000000;stroke-width:0.5;" x="144.30113943" xlink:href="#ma522d921c7" y="82.74575029"/>
     <use style="stroke:#000000;stroke-width:0.5;" x="136.249191519" xlink:href="#ma522d921c7" y="84.0129491142"/>
     <use style="stroke:#000000;stroke-width:0.5;" x="128.697153022" xlink:href="#ma522d921c7" y="85.4331338925"/>
     <use style="stroke:#000000;stroke-width:0.5;" x="121.667921935" xlink:href="#ma522d921c7" y="86.9948835897"/>
     <use style="stroke:#000000;stroke-width:0.5;" x="115.182960326" xlink:href="#ma522d921c7" y="88.685491103"/>
     <use style="stroke:#000000;stroke-width:0.5;" x="109.262265028" xlink:href="#ma522d921c7" y="90.4910832715"/>
     <use style="stroke:#000000;stroke-width:0.5;" x="103.924338806" xlink:href="#ma522d921c7" y="92.3967484341"/>
     <use style="stroke:#000000;stroke-width:0.5;" x="99.1861622497" xlink:href="#ma522d921c7" y="94.3866708807"/>
     <use style="stroke:#000000;stroke-width:0.5;" x="95.063166586" xlink:href="#ma522d921c7" y="96.4442715757"/>
     <use style="stroke:#000000;stroke-width:0.5;" x="91.5692075256" xlink:href="#ma522d921c7" y="98.552354551"/>
     <use style="stroke:#000000;stroke-width:0.5;" x="88.716540213" xlink:href="#ma522d921c7" y="100.693258376"/>
     <use style="stroke:#000000;stroke-width:0.5;" x="86.5157952449" xlink:href="#ma522d921c7" y="102.849012112"/>
     <use style="stroke:#000000;stroke-width:0.5;" x="84.9759556517" xlink:href="#ma522d921c7" y="105.001495146"/>
     <use style="stroke:#000000;stroke-width:0.5;" x="84.1043346474" xlink:href="#ma522d921c7" y="107.132600269"/>
     <use style="stroke:#000000;stroke-width:0.5;" x="83.9065538628" xlink:href="#ma522d921c7" y="109.224399342"/>
     <use style="stroke:#000000;stroke-width:0.5;" x="84.3865216898" xlink:href="#ma522d921c7" y="111.259310818"/>
     <use style="stroke:#000000;stroke-width:0.5;" x="85.5464112763" xlink:href="#ma522d921c7" y="113.220268335"/>
     <use style="stroke:#000000;stroke-width:0.5;" x="87.3866376278" xlink:href="#ma522d921c7" y="115.090889523"/>
     <use style="stroke:#000000;stroke-width:0.5;" x="89.9058331992" xlink:href="#ma522d921c7" y="116.855644018"/>
     <use style="stroke:#000000;stroke-width:0.5;" x="93.1008212897" xlink:href="#ma522d921c7" y="118.500019627"/>
     <use style="stroke:#000000;stroke-width:0.5;" x="96.9665865107" xlink:href="#ma522d921c7" y="120.010685366"/>
     <use style="stroke:#000000;stroke-width:0.5;" x="101.496241561" xlink:href="#ma522d921c7" y="121.375650002"/>
     <use style="stroke:#000000;stroke-width:0.5;" x="106.68098954" xlink:href="#ma522d921c7" y="122.58441449"/>
     <use style="stroke:#000000;stroke-width:0.5;" x="112.510081072" xlink:href="#ma522d921c7" y="123.628116529"/>
     <use style="stroke:#000000;stroke-width:0.5;" x="118.970765549" xlink:href="#ma522d921c7" y="124.49966523"/>
     <use style="stroke:#000000;stroke-width:0.5;" x="126.048235968" xlink:href="#ma522d921c7" y="125.193863643"/>
     <use style="stroke:#000000;stroke-width:0.5;" x="133.725566965" xlink:href="#ma522d921c7" y="125.707516681"/>
     <use style="stroke:#000000;stroke-width:0.5;" x="141.983645914" xlink:href="#ma522d921c7" y="126.039521697"/>
     <use style="stroke:#000000;stroke-width:0.5;" x="150.801097284" xlink:href="#ma522d921c7" y="126.190938787"/>
     <use style="stroke:#000000;stroke-width:0.5;" x="160.154200809" xlink:href="#ma522d921c7" y="126.165037666"/>
     <use style="stroke:#000000;stroke-width:0.5;" x="170.016804555" xlink:href="#ma522d921c7" y="125.967317816"/>
     <use style="stroke:#000000;stroke-width:0.5;" x="180.360234519" xlink:href="#ma522d921c7" y="125.605498529"/>
     <use style="stroke:#000000;stroke-width:0.5;" x="191.153203061" xlink:href="#ma522d921c7" y="125.089475475"/>
     <use style="stroke:#000000;stroke-width:0.5;" x="202.361719235" xlink:href="#ma522d921c7" y="124.431240547"/>
     <use style="stroke:#000000;stroke-width:0.5;" x="213.949004872" xlink:href="#ma522d921c7" y="123.644762044"/>
     <use style="stroke:#000000;stroke-width:0.5;" x="225.875421149" xlink:href="#ma522d921c7" y="122.745822699"/>
     <use style="stroke:#000000;stroke-width:0.5;" x="238.098411216" xlink:href="#ma522d921c7" y="121.751813771"/>
     <use style="stroke:#000000;stroke-width:0.5;" x="250.572465266" xlink:href="#ma522d921c7" y="120.681484338"/>
     <use style="stroke:#000000;stroke-width:0.5;" x="263.249115194" xlink:href="#ma522d921c7" y="119.554646103"/>
     <use style="stroke:#000000;stroke-width:0.5;" x="276.07696648" xlink:href="#ma522d921c7" y="118.391835499"/>
     <use style="stroke:#000000;stroke-width:0.5;" x="289.001775275" xlink:href="#ma522d921c7" y="117.213936529"/>
     <use style="stroke:#000000;stroke-width:0.5;" x="301.966578636" xlink:href="#ma522d921c7" y="116.041769725"/>
     <use style="stroke:#000000;stroke-width:0.5;" x="314.9118854" xlink:href="#ma522d921c7" y="114.895654607"/>
     <use style="stroke:#000000;stroke-width:0.5;" x="327.775934278" xlink:href="#ma522d921c7" y="113.794955177"/>
     <use style="stroke:#000000;stroke-width:0.5;" x="340.4950243" xlink:href="#ma522d921c7" y="112.757619992"/>
     <use style="stroke:#000000;stroke-width:0.5;" x="353.003920701" xlink:href="#ma522d921c7" y="111.799730218"/>
     <use style="stroke:#000000;stroke-width:0.5;" x="365.236336805" xlink:href="#ma522d921c7" y="110.935070559"/>
     <use style="stroke:#000000;stroke-width:0.5;" x="377.125489378" xlink:href="#ma522d921c7" y="110.174738876"/>
     <use style="stroke:#000000;stroke-width:0.5;" x="388.604721543" xlink:href="#ma522d921c7" y="109.526810611"/>
     <use style="stroke:#000000;stroke-width:0.5;" x="399.608183688" xlink:href="#ma522d921c7" y="108.996073547"/>
     <use style="stroke:#000000;stroke-width:0.5;" x="410.071559213" xlink:href="#ma522d921c7" y="108.58384699"/>
     <use style="stroke:#000000;stroke-width:0.5;" x="419.932818598" xlink:href="#ma522d921c7" y="108.287897036"/>
     <use style="stroke:#000000;stroke-width:0.5;" x="429.132982431" xlink:href="#ma522d921c7" y="108.102456313"/>
     <use style="stroke:#000000;stroke-width:0.5;" x="437.616872017" xlink:href="#ma522d921c7" y="108.0183525"/>
     <use style="stroke:#000000;stroke-width:0.5;" x="445.333825087" xlink:href="#ma522d921c7" y="108.023245349"/>
     <use style="stroke:#000000;stroke-width:0.5;" x="452.238354286" xlink:href="#ma522d921c7" y="108.101966986"/>
     <use style="stroke:#000000;stroke-width:0.5;" x="458.290727385" xlink:href="#ma522d921c7" y="108.236955461"/>
     <use style="stroke:#000000;stroke-width:0.5;" x="463.457450765" xlink:href="#ma522d921c7" y="108.408766994"/>
     <use style="stroke:#000000;stroke-width:0.5;" x="467.711641266" xlink:href="#ma522d921c7" y="108.596648611"/>
     <use style="stroke:#000000;stroke-width:0.5;" x="471.033275995" xlink:href="#ma522d921c7" y="108.779150052"/>
     <use style="stroke:#000000;stroke-width:0.5;" x="473.409314661" xlink:href="#ma522d921c7" y="108.934752218"/>
     <use style="stroke:#000000;stroke-width:0.5;" x="474.833694279" xlink:href="#ma522d921c7" y="109.042489063"/>
     <use style="stroke:#000000;stroke-width:0.5;" x="475.307201087" xlink:href="#ma522d921c7" y="109.082540761"/>
    </g>
   </g>
   <g id="line2d_2">
    <path clip-path="url(#p3661175a4b)" d="
M475.307 91.3121
L474.837 92.6375
L473.437 94.1174
L471.127 95.7517
L467.932 97.54
L463.88 99.4815
L459.007 101.575
L453.35 103.818
L446.949 106.209
L439.847 108.744
L432.091 111.419
L423.726 114.232
L414.801 117.176
L405.364 120.245
L395.465 123.434
L385.152 126.735
L374.475 130.141
L363.482 133.642
L352.22 137.229
L340.738 140.892
L329.082 144.622
L317.297 148.406
L305.428 152.234
L293.518 156.093
L281.61 159.972
L269.746 163.858
L257.966 167.739
L246.309 171.602
L234.813 175.437
L223.515 179.23
L212.451 182.972
L201.655 186.652
L191.161 190.26
L181.001 193.788
L171.207 197.228
L161.806 200.571
L152.829 203.811
L144.301 206.94
L136.249 209.948
L128.697 212.82
L121.668 215.527
L115.183 218.024
L109.262 220.224
L103.924 221.961
L99.1862 222.928
L95.0632 222.53
L91.5692 219.612
L88.7165 211.939
L86.5158 195.387
L84.976 163.647
L84.1043 112.517
L83.9066 53.8402
L84.3865 17.206
L85.5464 14.1375
L87.3866 29.6062
L89.9058 48.7877
L93.1008 65.631
L96.9666 78.8948
L101.496 88.9064
L106.681 96.3051
L112.51 101.679
L118.971 105.493
L126.048 108.102
L133.726 109.77
L141.984 110.7
L150.801 111.047
L160.154 110.931
L170.017 110.448
L180.36 109.675
L191.153 108.676
L202.362 107.502
L213.949 106.199
L225.875 104.802
L238.098 103.344
L250.572 101.852
L263.249 100.35
L276.077 98.8588
L289.002 97.3966
L301.967 95.9792
L314.912 94.6205
L327.776 93.3327
L340.495 92.1265
L353.004 91.0115
L365.236 89.996
L377.125 89.0872
L388.605 88.2917
L399.608 87.6151
L410.072 87.0625
L419.933 86.6382
L429.133 86.3462
L437.617 86.1901
L445.334 86.173
L452.238 86.2975
L458.291 86.5662
L463.457 86.9814
L467.712 87.5448
L471.033 88.2583
L473.409 89.1233
L474.834 90.1409
L475.307 91.3121" style="fill:none;stroke:#008000;stroke-linecap:square;"/>
   </g>
   <g id="patch_3">
    <path d="
M33.7594 12.0391
L480.159 12.0391" style="fill:none;stroke:#000000;stroke-linecap:square;stroke-linejoin:miter;"/>
   </g>
   <g id="patch_4">
    <path d="
M480.159 235.239
L480.159 12.0391" style="fill:none;stroke:#000000;stroke-linecap:square;stroke-linejoin:miter;"/>
   </g>
   <g id="patch_5">
    <path d="
M33.7594 235.239
L480.159 235.239" style="fill:none;stroke:#000000;stroke-linecap:square;stroke-linejoin:miter;"/>
   </g>
   <g id="patch_6">
    <path d="
M33.7594 235.239
L33.7594 12.0391" style="fill:none;stroke:#000000;stroke-linecap:square;stroke-linejoin:miter;"/>
   </g>
   <g id="matplotlib.axis_1">
    <g id="xtick_1">
     <g id="line2d_3">
      <path clip-path="url(#p3661175a4b)" d="
M87.1333 235.239
L87.1333 12.0391" style="fill:none;stroke:#000000;stroke-dasharray:1.000000,3.000000;stroke-dashoffset:0.0;stroke-width:0.5;"/>
     </g>
     <g id="line2d_4">
      <defs>
       <path d="
M0 0
L0 -4" id="m93b0483c22" style="stroke:#000000;stroke-width:0.5;"/>
      </defs>
      <g>
       <use style="stroke:#000000;stroke-width:0.5;" x="87.1332880435" xlink:href="#m93b0483c22" y="235.2390625"/>
      </g>
     </g>
     <g id="line2d_5">
      <defs>
       <path d="
M0 0
L0 4" id="m741efc42ff" style="stroke:#000000;stroke-width:0.5;"/>
      </defs>
      <g>
       <use style="stroke:#000000;stroke-width:0.5;" x="87.1332880435" xlink:href="#m741efc42ff" y="12.0390625"/>
      </g>
     </g>
     <g id="text_1">
      <!-- −2 -->
      <defs>
       <path d="
M19.1875 8.29688
L53.6094 8.29688
L53.6094 0
L7.32812 0
L7.32812 8.29688
Q12.9375 14.1094 22.625 23.8906
Q32.3281 33.6875 34.8125 36.5312
Q39.5469 41.8438 41.4219 45.5312
Q43.3125 49.2188 43.3125 52.7812
Q43.3125 58.5938 39.2344 62.25
Q35.1562 65.9219 28.6094 65.9219
Q23.9688 65.9219 18.8125 64.3125
Q13.6719 62.7031 7.8125 59.4219
L7.8125 69.3906
Q13.7656 71.7812 18.9375 73
Q24.125 74.2188 28.4219 74.2188
Q39.75 74.2188 46.4844 68.5469
Q53.2188 62.8906 53.2188 53.4219
Q53.2188 48.9219 51.5312 44.8906
Q49.8594 40.875 45.4062 35.4062
Q44.1875 33.9844 37.6406 27.2188
Q31.1094 20.4531 19.1875 8.29688" id="DejaVuSans-32"/>
       <path d="
M10.5938 35.5
L73.1875 35.5
L73.1875 27.2031
L10.5938 27.2031
z
" id="DejaVuSans-2212"/>
      </defs>
      <g transform="translate(80.7926630435 246.8375)scale(0.1 -0.1)">
       <use xlink:href="#DejaVuSans-2212"/>
       <use x="83.7890625" xlink:href="#DejaVuSans-32"/>
      </g>
     </g>
    </g>
    <g id="xtick_2">
     <g id="line2d_6">
      <path clip-path="url(#p3661175a4b)" d="
M184.177 235.239
L184.177 12.0391" style="fill:none;stroke:#000000;stroke-dasharray:1.000000,3.000000;stroke-dashoffset:0.0;stroke-width:0.5;"/>
     </g>
     <g id="line2d_7">
      <g>
       <use style="stroke:#000000;stroke-width:0.5;" x="184.176766304" xlink:href="#m93b0483c22" y="235.2390625"/>
      </g>
     </g>
     <g id="line2d_8">
      <g>
       <use style="stroke:#000000;stroke-width:0.5;" x="184.176766304" xlink:href="#m741efc42ff" y="12.0390625"/>
      </g>
     </g>
     <g id="text_2">
      <!-- −1 -->
      <defs>
       <path d="
M12.4062 8.29688
L28.5156 8.29688
L28.5156 63.9219
L10.9844 60.4062
L10.9844 69.3906
L28.4219 72.9062
L38.2812 72.9062
L38.2812 8.29688
L54.3906 8.29688
L54.3906 0
L12.4062 0
z
" id="DejaVuSans-31"/>
      </defs>
      <g transform="translate(177.797078804 246.8375)scale(0.1 -0.1)">
       <use xlink:href="#DejaVuSans-2212"/>
       <use x="83.7890625" xlink:href="#DejaVuSans-31"/>
      </g>
     </g>
    </g>
    <g id="xtick_3">
     <g id="line2d_9">
      <path clip-path="url(#p3661175a4b)" d="
M281.22 235.239
L281.22 12.0391" style="fill:none;stroke:#000000;stroke-dasharray:1.000000,3.000000;stroke-dashoffset:0.0;stroke-width:0.5;"/>
     </g>
     <g id="line2d_10">
      <g>
       <use style="stroke:#000000;stroke-width:0.5;" x="281.220244565" xlink:href="#m93b0483c22" y="235.2390625"/>
      </g>
     </g>
     <g id="line2d_11">
      <g>
       <use style="stroke:#000000;stroke-width:0.5;" x="281.220244565" xlink:href="#m741efc42ff" y="12.0390625"/>
      </g>
     </g>
     <g id="text_3">
      <!-- 0 -->
      <defs>
       <path d="
M31.7812 66.4062
Q24.1719 66.4062 20.3281 58.9062
Q16.5 51.4219 16.5 36.375
Q16.5 21.3906 20.3281 13.8906
Q24.1719 6.39062 31.7812 6.39062
Q39.4531 6.39062 43.2812 13.8906
Q47.125 21.3906 47.125 36.375
Q47.125 51.4219 43.2812 58.9062
Q39.4531 66.4062 31.7812 66.4062
M31.7812 74.2188
Q44.0469 74.2188 50.5156 64.5156
Q56.9844 54.8281 56.9844 36.375
Q56.9844 17.9688 50.5156 8.26562
Q44.0469 -1.42188 31.7812 -1.42188
Q19.5312 -1.42188 13.0625 8.26562
Q6.59375 17.9688 6.59375 36.375
Q6.59375 54.8281 13.0625 64.5156
Q19.5312 74.2188 31.7812 74.2188" id="DejaVuSans-30"/>
      </defs>
      <g transform="translate(278.700713315 246.8375)scale(0.1 -0.1)">
       <use xlink:href="#DejaVuSans-30"/>
      </g>
     </g>
    </g>
    <g id="xtick_4">
     <g id="line2d_12">
      <path clip-path="url(#p3661175a4b)" d="
M378.264 235.239
L378.264 12.0391" style="fill:none;stroke:#000000;stroke-dasharray:1.000000,3.000000;stroke-dashoffset:0.0;stroke-width:0.5;"/>
     </g>
     <g id="line2d_13">
      <g>
       <use style="stroke:#000000;stroke-width:0.5;" x="378.263722826" xlink:href="#m93b0483c22" y="235.2390625"/>
      </g>
     </g>
     <g id="line2d_14">
      <g>
       <use style="stroke:#000000;stroke-width:0.5;" x="378.263722826" xlink:href="#m741efc42ff" y="12.0390625"/>
      </g>
     </g>
     <g id="text_4">
      <!-- 1 -->
      <g transform="translate(376.093410326 246.8375)scale(0.1 -0.1)">
       <use xlink:href="#DejaVuSans-31"/>
      </g>
     </g>
    </g>
    <g id="xtick_5">
     <g id="line2d_15">
      <path clip-path="url(#p3661175a4b)" d="
M475.307 235.239
L475.307 12.0391" style="fill:none;stroke:#000000;stroke-dasharray:1.000000,3.000000;stroke-dashoffset:0.0;stroke-width:0.5;"/>
     </g>
     <g id="line2d_16">
      <g>
       <use style="stroke:#000000;stroke-width:0.5;" x="475.307201087" xlink:href="#m93b0483c22" y="235.2390625"/>
      </g>
     </g>
     <g id="line2d_17">
      <g>
       <use style="stroke:#000000;stroke-width:0.5;" x="475.307201087" xlink:href="#m741efc42ff" y="12.0390625"/>
      </g>
     </g>
     <g id="text_5">
      <!-- 2 -->
      <g transform="translate(472.993138587 246.8375)scale(0.1 -0.1)">
       <use xlink:href="#DejaVuSans-32"/>
      </g>
     </g>
    </g>
    <g id="text_6">
     <!-- $x$ -->
     <defs>
      <path d="
M7.8125 2.875
Q9.57812 1.51562 12.7969 1.51562
Q15.9219 1.51562 18.3125 4.51562
Q20.7031 7.51562 21.5781 11.0781
L26.125 28.8125
Q27.2031 33.6406 27.2031 35.4062
Q27.2031 37.8906 25.8125 39.75
Q24.4219 41.6094 21.9219 41.6094
Q18.75 41.6094 15.9688 39.625
Q13.1875 37.6406 11.2812 34.5938
Q9.375 31.5469 8.59375 28.4219
Q8.40625 27.7812 7.8125 27.7812
L6.59375 27.7812
Q5.8125 27.7812 5.8125 28.7188
L5.8125 29
Q6.78125 32.7188 9.125 36.25
Q11.4688 39.7969 14.8594 41.9844
Q18.2656 44.1875 22.125 44.1875
Q25.7812 44.1875 28.7344 42.2344
Q31.6875 40.2812 32.9062 36.9219
Q34.625 39.9844 37.2812 42.0781
Q39.9375 44.1875 43.1094 44.1875
Q45.2656 44.1875 47.5 43.4219
Q49.75 42.6719 51.1719 41.1094
Q52.5938 39.5469 52.5938 37.2031
Q52.5938 34.6719 50.9531 32.8281
Q49.3125 31 46.7812 31
Q45.1719 31 44.0938 32.0312
Q43.0156 33.0625 43.0156 34.625
Q43.0156 36.7188 44.4531 38.2969
Q45.9062 39.8906 47.9062 40.1875
Q46.0938 41.6094 42.9219 41.6094
Q39.7031 41.6094 37.3281 38.625
Q34.9688 35.6406 33.9844 31.9844
L29.5938 14.3125
Q28.5156 10.2969 28.5156 7.71875
Q28.5156 5.17188 29.9531 3.34375
Q31.3906 1.51562 33.7969 1.51562
Q38.4844 1.51562 42.1562 5.64062
Q45.8438 9.76562 47.0156 14.7031
Q47.2188 15.2812 47.7969 15.2812
L49.0312 15.2812
Q49.4219 15.2812 49.6562 15.0156
Q49.9062 14.75 49.9062 14.4062
Q49.9062 14.3125 49.8125 14.1094
Q48.3906 8.15625 43.8438 3.51562
Q39.3125 -1.125 33.5938 -1.125
Q29.9375 -1.125 26.9844 0.84375
Q24.0312 2.82812 22.7969 6.20312
Q21.2344 3.26562 18.4688 1.0625
Q15.7188 -1.125 12.5938 -1.125
Q10.4531 -1.125 8.17188 -0.359375
Q5.90625 0.390625 4.48438 1.95312
Q3.07812 3.51562 3.07812 5.90625
Q3.07812 8.25 4.70312 10.1719
Q6.34375 12.1094 8.79688 12.1094
Q10.4531 12.1094 11.5781 11.1094
Q12.7031 10.1094 12.7031 8.5
Q12.7031 6.39062 11.2969 4.82812
Q9.90625 3.26562 7.8125 2.875" id="Cmmi10-78"/>
     </defs>
     <g transform="translate(252.609375 265.31484375)scale(0.15 -0.15)">
      <use transform="translate(0.0 0.8125)" xlink:href="#Cmmi10-78"/>
     </g>
    </g>
   </g>
   <g id="matplotlib.axis_2">
    <g id="ytick_1">
     <g id="line2d_18">
      <path clip-path="url(#p3661175a4b)" d="
M33.7594 206.126
L480.159 206.126" style="fill:none;stroke:#000000;stroke-dasharray:1.000000,3.000000;stroke-dashoffset:0.0;stroke-width:0.5;"/>
     </g>
     <g id="line2d_19">
      <defs>
       <path d="
M0 0
L4 0" id="m728421d6d4" style="stroke:#000000;stroke-width:0.5;"/>
      </defs>
      <g>
       <use style="stroke:#000000;stroke-width:0.5;" x="33.759375" xlink:href="#m728421d6d4" y="206.126019022"/>
      </g>
     </g>
     <g id="line2d_20">
      <defs>
       <path d="
M0 0
L-4 0" id="mcb0005524f" style="stroke:#000000;stroke-width:0.5;"/>
      </defs>
      <g>
       <use style="stroke:#000000;stroke-width:0.5;" x="480.159375" xlink:href="#mcb0005524f" y="206.126019022"/>
      </g>
     </g>
     <g id="text_7">
      <!-- −1.0 -->
      <defs>
       <path d="
M10.6875 12.4062
L21 12.4062
L21 0
L10.6875 0
z
" id="DejaVuSans-2e"/>
      </defs>
      <g transform="translate(7.2 208.885394022)scale(0.1 -0.1)">
       <use xlink:href="#DejaVuSans-2212"/>
       <use x="83.7890625" xlink:href="#DejaVuSans-31"/>
       <use x="147.412109375" xlink:href="#DejaVuSans-2e"/>
       <use x="179.19921875" xlink:href="#DejaVuSans-30"/>
      </g>
     </g>
    </g>
    <g id="ytick_2">
     <g id="line2d_21">
      <path clip-path="url(#p3661175a4b)" d="
M33.7594 157.604
L480.159 157.604" style="fill:none;stroke:#000000;stroke-dasharray:1.000000,3.000000;stroke-dashoffset:0.0;stroke-width:0.5;"/>
     </g>
     <g id="line2d_22">
      <g>
       <use style="stroke:#000000;stroke-width:0.5;" x="33.759375" xlink:href="#m728421d6d4" y="157.604279891"/>
      </g>
     </g>
     <g id="line2d_23">
      <g>
       <use style="stroke:#000000;stroke-width:0.5;" x="480.159375" xlink:href="#mcb0005524f" y="157.604279891"/>
      </g>
     </g>
     <g id="text_8">
      <!-- −0.5 -->
      <defs>
       <path d="
M10.7969 72.9062
L49.5156 72.9062
L49.5156 64.5938
L19.8281 64.5938
L19.8281 46.7344
Q21.9688 47.4688 24.1094 47.8281
Q26.2656 48.1875 28.4219 48.1875
Q40.625 48.1875 47.75 41.5
Q54.8906 34.8125 54.8906 23.3906
Q54.8906 11.625 47.5625 5.09375
Q40.2344 -1.42188 26.9062 -1.42188
Q22.3125 -1.42188 17.5469 -0.640625
Q12.7969 0.140625 7.71875 1.70312
L7.71875 11.625
Q12.1094 9.23438 16.7969 8.0625
Q21.4844 6.89062 26.7031 6.89062
Q35.1562 6.89062 40.0781 11.3281
Q45.0156 15.7656 45.0156 23.3906
Q45.0156 31 40.0781 35.4375
Q35.1562 39.8906 26.7031 39.8906
Q22.75 39.8906 18.8125 39.0156
Q14.8906 38.1406 10.7969 36.2812
z
" id="DejaVuSans-35"/>
      </defs>
      <g transform="translate(7.409375 160.363654891)scale(0.1 -0.1)">
       <use xlink:href="#DejaVuSans-2212"/>
       <use x="83.7890625" xlink:href="#DejaVuSans-30"/>
       <use x="147.412109375" xlink:href="#DejaVuSans-2e"/>
       <use x="179.19921875" xlink:href="#DejaVuSans-35"/>
      </g>
     </g>
    </g>
    <g id="ytick_3">
     <g id="line2d_24">
      <path clip-path="url(#p3661175a4b)" d="
M33.7594 109.083
L480.159 109.083" style="fill:none;stroke:#000000;stroke-dasharray:1.000000,3.000000;stroke-dashoffset:0.0;stroke-width:0.5;"/>
     </g>
     <g id="line2d_25">
      <g>
       <use style="stroke:#000000;stroke-width:0.5;" x="33.759375" xlink:href="#m728421d6d4" y="109.082540761"/>
      </g>
     </g>
     <g id="line2d_26">
      <g>
       <use style="stroke:#000000;stroke-width:0.5;" x="480.159375" xlink:href="#mcb0005524f" y="109.082540761"/>
      </g>
     </g>
     <g id="text_9">
      <!-- 0.0 -->
      <g transform="translate(15.1796875 111.841915761)scale(0.1 -0.1)">
       <use xlink:href="#DejaVuSans-30"/>
       <use x="63.623046875" xlink:href="#DejaVuSans-2e"/>
       <use x="95.41015625" xlink:href="#DejaVuSans-30"/>
      </g>
     </g>
    </g>
    <g id="ytick_4">
     <g id="line2d_27">
      <path clip-path="url(#p3661175a4b)" d="
M33.7594 60.5608
L480.159 60.5608" style="fill:none;stroke:#000000;stroke-dasharray:1.000000,3.000000;stroke-dashoffset:0.0;stroke-width:0.5;"/>
     </g>
     <g id="line2d_28">
      <g>
       <use style="stroke:#000000;stroke-width:0.5;" x="33.759375" xlink:href="#m728421d6d4" y="60.5608016304"/>
      </g>
     </g>
     <g id="line2d_29">
      <g>
       <use style="stroke:#000000;stroke-width:0.5;" x="480.159375" xlink:href="#mcb0005524f" y="60.5608016304"/>
      </g>
     </g>
     <g id="text_10">
      <!-- 0.5 -->
      <g transform="translate(15.3890625 63.3201766304)scale(0.1 -0.1)">
       <use xlink:href="#DejaVuSans-30"/>
       <use x="63.623046875" xlink:href="#DejaVuSans-2e"/>
       <use x="95.41015625" xlink:href="#DejaVuSans-35"/>
      </g>
     </g>
    </g>
    <g id="ytick_5">
     <g id="line2d_30">
      <path clip-path="url(#p3661175a4b)" d="
M33.7594 12.0391
L480.159 12.0391" style="fill:none;stroke:#000000;stroke-dasharray:1.000000,3.000000;stroke-dashoffset:0.0;stroke-width:0.5;"/>
     </g>
     <g id="line2d_31">
      <g>
       <use style="stroke:#000000;stroke-width:0.5;" x="33.759375" xlink:href="#m728421d6d4" y="12.0390625"/>
      </g>
     </g>
     <g id="line2d_32">
      <g>
       <use style="stroke:#000000;stroke-width:0.5;" x="480.159375" xlink:href="#mcb0005524f" y="12.0390625"/>
      </g>
     </g>
     <g id="text_11">
      <!-- 1.0 -->
      <g transform="translate(15.61875 14.7984375)scale(0.1 -0.1)">
       <use xlink:href="#DejaVuSans-31"/>
       <use x="63.623046875" xlink:href="#DejaVuSans-2e"/>
       <use x="95.41015625" xlink:href="#DejaVuSans-30"/>
      </g>
     </g>
    </g>
   </g>
   <g id="legend_1">
    <g id="patch_7">
     <path d="
M295.086 56.8666
L474.159 56.8666
L474.159 18.0391
L295.086 18.0391
z
" style="fill:#ffffff;stroke:#000000;stroke-linejoin:miter;"/>
    </g>
    <g id="line2d_33">
     <path d="
M303.486 27.7572
L320.286 27.7572" style="fill:none;stroke:#000000;stroke-linecap:square;"/>
    </g>
    <g id="line2d_34">
     <g>
      <use style="stroke:#000000;stroke-width:0.5;" x="303.485625" xlink:href="#ma522d921c7" y="27.7571875"/>
      <use style="stroke:#000000;stroke-width:0.5;" x="320.285625" xlink:href="#ma522d921c7" y="27.7571875"/>
     </g>
    </g>
    <g id="text_12">
     <!-- joukowsky -0.1 + 0.05j -->
     <defs>
      <path d="
M46 62.7031
L46 35.5
L73.1875 35.5
L73.1875 27.2031
L46 27.2031
L46 0
L37.7969 0
L37.7969 27.2031
L10.5938 27.2031
L10.5938 35.5
L37.7969 35.5
L37.7969 62.7031
z
" id="DejaVuSans-2b"/>
      <path d="
M4.89062 31.3906
L31.2031 31.3906
L31.2031 23.3906
L4.89062 23.3906
z
" id="DejaVuSans-2d"/>
      <path d="
M30.6094 48.3906
Q23.3906 48.3906 19.1875 42.75
Q14.9844 37.1094 14.9844 27.2969
Q14.9844 17.4844 19.1562 11.8438
Q23.3438 6.20312 30.6094 6.20312
Q37.7969 6.20312 41.9844 11.8594
Q46.1875 17.5312 46.1875 27.2969
Q46.1875 37.0156 41.9844 42.7031
Q37.7969 48.3906 30.6094 48.3906
M30.6094 56
Q42.3281 56 49.0156 48.375
Q55.7188 40.7656 55.7188 27.2969
Q55.7188 13.875 49.0156 6.21875
Q42.3281 -1.42188 30.6094 -1.42188
Q18.8438 -1.42188 12.1719 6.21875
Q5.51562 13.875 5.51562 27.2969
Q5.51562 40.7656 12.1719 48.375
Q18.8438 56 30.6094 56" id="DejaVuSans-6f"/>
      <path d="
M9.07812 75.9844
L18.1094 75.9844
L18.1094 31.1094
L44.9219 54.6875
L56.3906 54.6875
L27.3906 29.1094
L57.625 0
L45.9062 0
L18.1094 26.7031
L18.1094 0
L9.07812 0
z
" id="DejaVuSans-6b"/>
      <path d="
M9.42188 54.6875
L18.4062 54.6875
L18.4062 -0.984375
Q18.4062 -11.4219 14.4219 -16.1094
Q10.4531 -20.7969 1.60938 -20.7969
L-1.8125 -20.7969
L-1.8125 -13.1875
L0.59375 -13.1875
Q5.71875 -13.1875 7.5625 -10.8125
Q9.42188 -8.45312 9.42188 -0.984375
z

M9.42188 75.9844
L18.4062 75.9844
L18.4062 64.5938
L9.42188 64.5938
z
" id="DejaVuSans-6a"/>
      <path id="DejaVuSans-20"/>
      <path d="
M32.1719 -5.07812
Q28.375 -14.8438 24.75 -17.8125
Q21.1406 -20.7969 15.0938 -20.7969
L7.90625 -20.7969
L7.90625 -13.2812
L13.1875 -13.2812
Q16.8906 -13.2812 18.9375 -11.5156
Q21 -9.76562 23.4844 -3.21875
L25.0938 0.875
L2.98438 54.6875
L12.5 54.6875
L29.5938 11.9219
L46.6875 54.6875
L56.2031 54.6875
z
" id="DejaVuSans-79"/>
      <path d="
M8.5 21.5781
L8.5 54.6875
L17.4844 54.6875
L17.4844 21.9219
Q17.4844 14.1562 20.5 10.2656
Q23.5312 6.39062 29.5938 6.39062
Q36.8594 6.39062 41.0781 11.0312
Q45.3125 15.6719 45.3125 23.6875
L45.3125 54.6875
L54.2969 54.6875
L54.2969 0
L45.3125 0
L45.3125 8.40625
Q42.0469 3.42188 37.7188 1
Q33.4062 -1.42188 27.6875 -1.42188
Q18.2656 -1.42188 13.375 4.4375
Q8.5 10.2969 8.5 21.5781
M31.1094 56
z
" id="DejaVuSans-75"/>
      <path d="
M4.20312 54.6875
L13.1875 54.6875
L24.4219 12.0156
L35.5938 54.6875
L46.1875 54.6875
L57.4219 12.0156
L68.6094 54.6875
L77.5938 54.6875
L63.2812 0
L52.6875 0
L40.9219 44.8281
L29.1094 0
L18.5 0
z
" id="DejaVuSans-77"/>
      <path d="
M44.2812 53.0781
L44.2812 44.5781
Q40.4844 46.5312 36.375 47.5
Q32.2812 48.4844 27.875 48.4844
Q21.1875 48.4844 17.8438 46.4375
Q14.5 44.3906 14.5 40.2812
Q14.5 37.1562 16.8906 35.375
Q19.2812 33.5938 26.5156 31.9844
L29.5938 31.2969
Q39.1562 29.25 43.1875 25.5156
Q47.2188 21.7812 47.2188 15.0938
Q47.2188 7.46875 41.1875 3.01562
Q35.1562 -1.42188 24.6094 -1.42188
Q20.2188 -1.42188 15.4531 -0.5625
Q10.6875 0.296875 5.42188 2
L5.42188 11.2812
Q10.4062 8.6875 15.2344 7.39062
Q20.0625 6.10938 24.8125 6.10938
Q31.1562 6.10938 34.5625 8.28125
Q37.9844 10.4531 37.9844 14.4062
Q37.9844 18.0625 35.5156 20.0156
Q33.0625 21.9688 24.7031 23.7812
L21.5781 24.5156
Q13.2344 26.2656 9.51562 29.9062
Q5.8125 33.5469 5.8125 39.8906
Q5.8125 47.6094 11.2812 51.7969
Q16.75 56 26.8125 56
Q31.7812 56 36.1719 55.2656
Q40.5781 54.5469 44.2812 53.0781" id="DejaVuSans-73"/>
     </defs>
     <g transform="translate(333.485625 31.9571875)scale(0.12 -0.12)">
      <use xlink:href="#DejaVuSans-6a"/>
      <use x="27.783203125" xlink:href="#DejaVuSans-6f"/>
      <use x="88.96484375" xlink:href="#DejaVuSans-75"/>
      <use x="152.34375" xlink:href="#DejaVuSans-6b"/>
      <use x="206.62890625" xlink:href="#DejaVuSans-6f"/>
      <use x="267.810546875" xlink:href="#DejaVuSans-77"/>
      <use x="349.59765625" xlink:href="#DejaVuSans-73"/>
      <use x="401.697265625" xlink:href="#DejaVuSans-6b"/>
      <use x="455.982421875" xlink:href="#DejaVuSans-79"/>
      <use x="515.162109375" xlink:href="#DejaVuSans-20"/>
      <use x="546.94921875" xlink:href="#DejaVuSans-2d"/>
      <use x="583.033203125" xlink:href="#DejaVuSans-30"/>
      <use x="646.65625" xlink:href="#DejaVuSans-2e"/>
      <use x="678.443359375" xlink:href="#DejaVuSans-31"/>
      <use x="742.06640625" xlink:href="#DejaVuSans-20"/>
      <use x="773.853515625" xlink:href="#DejaVuSans-2b"/>
      <use x="857.642578125" xlink:href="#DejaVuSans-20"/>
      <use x="889.4296875" xlink:href="#DejaVuSans-30"/>
      <use x="953.052734375" xlink:href="#DejaVuSans-2e"/>
      <use x="984.83984375" xlink:href="#DejaVuSans-30"/>
      <use x="1048.46289062" xlink:href="#DejaVuSans-35"/>
      <use x="1112.0859375" xlink:href="#DejaVuSans-6a"/>
     </g>
    </g>
    <g id="line2d_35">
     <path d="
M303.486 45.3709
L320.286 45.3709" style="fill:none;stroke:#008000;stroke-linecap:square;"/>
    </g>
    <g id="line2d_36"/>
    <g id="text_13">
     <!-- $cp$ -->
     <defs>
      <path d="
M11.7188 11.9219
Q11.7188 7.5625 13.9375 4.53125
Q16.1562 1.51562 20.3125 1.51562
Q26.2656 1.51562 31.75 4.25
Q37.25 6.98438 40.7188 11.8125
Q41.0156 12.1094 41.5 12.1094
Q42 12.1094 42.5 11.5469
Q43.0156 10.9844 43.0156 10.5
Q43.0156 10.1094 42.8281 9.90625
Q39.1562 4.78125 32.9531 1.82812
Q26.7656 -1.125 20.125 -1.125
Q15.3281 -1.125 11.6719 1.14062
Q8.01562 3.42188 6 7.21875
Q4 11.0312 4 15.8281
Q4 22.5625 7.76562 29.2031
Q11.5312 35.8438 17.7812 40.0156
Q24.0312 44.1875 30.9062 44.1875
Q35.4062 44.1875 38.9844 42.0156
Q42.5781 39.8438 42.5781 35.5938
Q42.5781 32.8594 40.9844 30.9219
Q39.4062 29 36.7188 29
Q35.1094 29 34 30
Q32.9062 31 32.9062 32.625
Q32.9062 34.9688 34.6094 36.625
Q36.3281 38.2812 38.625 38.2812
L38.8125 38.2812
Q37.6406 39.9844 35.4219 40.7969
Q33.2031 41.6094 30.8125 41.6094
Q24.9531 41.6094 20.5469 36.5938
Q16.1562 31.5938 13.9375 24.625
Q11.7188 17.6719 11.7188 11.9219" id="Cmmi10-63"/>
      <path d="
M-2.48438 -19.3906
Q-3.42188 -19.3906 -3.42188 -18.1094
Q-3.07812 -15.9219 -2.09375 -15.9219
Q1.03125 -15.9219 2.26562 -15.3594
Q3.51562 -14.7969 4.20312 -12.5
L15.4844 32.5156
Q16.2188 34.375 16.2188 37.3125
Q16.2188 41.6094 13.2812 41.6094
Q10.1562 41.6094 8.64062 37.8594
Q7.125 34.125 5.71875 28.4219
Q5.71875 27.7812 4.89062 27.7812
L3.71875 27.7812
Q3.46875 27.7812 3.17188 28.1406
Q2.875 28.5156 2.875 28.8125
Q3.95312 33.1562 4.95312 36.1719
Q5.95312 39.2031 8.07812 41.6875
Q10.2031 44.1875 13.375 44.1875
Q16.7969 44.1875 19.375 42.25
Q21.9688 40.3281 22.7031 37.0156
Q25.4375 40.1875 28.75 42.1875
Q32.0781 44.1875 35.5938 44.1875
Q39.7969 44.1875 42.8906 41.9375
Q46 39.7031 47.5625 36.0625
Q49.125 32.4219 49.125 28.2188
Q49.125 21.7812 45.8281 14.8906
Q42.5312 8.01562 36.8906 3.4375
Q31.25 -1.125 24.8125 -1.125
Q21.875 -1.125 19.5 0.53125
Q17.1406 2.20312 15.8281 4.89062
L11.2812 -12.8906
Q11.0312 -14.3594 10.9844 -14.5938
Q10.9844 -15.9219 17.5781 -15.9219
Q18.6094 -15.9219 18.6094 -17.1875
Q18.2656 -18.5 18.0469 -18.9375
Q17.8281 -19.3906 16.8906 -19.3906
z

M24.9062 1.51562
Q28.375 1.51562 31.3438 4.375
Q34.3281 7.23438 36.1875 10.7969
Q37.5469 13.4844 38.7344 17.3594
Q39.9375 21.2344 40.8125 25.625
Q41.7031 30.0312 41.7031 32.625
Q41.7031 34.9062 41.0938 36.9062
Q40.4844 38.9219 39.0938 40.2656
Q37.7031 41.6094 35.4062 41.6094
Q31.7344 41.6094 28.4844 38.9844
Q25.25 36.375 22.6094 32.5156
L22.6094 32.1719
L17.0938 10.1094
Q17.7812 6.54688 19.7344 4.03125
Q21.6875 1.51562 24.9062 1.51562" id="Cmmi10-70"/>
     </defs>
     <g transform="translate(333.485625 49.5709375)scale(0.12 -0.12)">
      <use transform="translate(0.0 0.8125)" xlink:href="#Cmmi10-63"/>
      <use transform="translate(43.212890625 0.8125)" xlink:href="#Cmmi10-70"/>
     </g>
    </g>
   </g>
  </g>
 </g>
 <defs>
  <clipPath id="p3661175a4b">
   <rect height="223.2" width="446.4" x="33.759375" y="12.0390625"/>
  </clipPath>
 </defs>
</svg>
