<?xml version="1.0" encoding="utf-8" standalone="no"?>
<!DOCTYPE svg PUBLIC "-//W3C//DTD SVG 1.1//EN"
  "http://www.w3.org/Graphics/SVG/1.1/DTD/svg11.dtd">
<!-- Created with matplotlib (http://matplotlib.org/) -->
<svg height="270pt" version="1.1" viewBox="0 0 494 270" width="494pt" xmlns="http://www.w3.org/2000/svg" xmlns:xlink="http://www.w3.org/1999/xlink">
 <defs>
  <style type="text/css">
*{stroke-linecap:butt;stroke-linejoin:round;}
  </style>
 </defs>
 <g id="figure_1">
  <g id="patch_1">
   <path d="
M0 270.795
L494.612 270.795
L494.612 0
L0 0
z
" style="fill:none;"/>
  </g>
  <g id="axes_1">
   <g id="patch_2">
    <path d="
M33.7594 230.4
L480.159 230.4
L480.159 7.2
L33.7594 7.2
z
" style="fill:none;"/>
   </g>
   <g id="line2d_1">
    <path clip-path="url(#pace543e0b6)" d="
M480.159 118.8
L479.679 118.753
L478.248 118.602
L475.887 118.334
L472.62 117.937
L468.479 117.404
L463.497 116.73
L457.714 115.916
L451.171 114.962
L443.911 113.875
L435.982 112.663
L427.432 111.336
L418.308 109.909
L408.662 108.397
L398.543 106.818
L388.001 105.189
L377.086 103.531
L365.849 101.863
L354.337 100.207
L342.6 98.5825
L330.685 97.0097
L318.638 95.5082
L306.505 94.0968
L294.331 92.7929
L282.158 91.6129
L270.03 90.5715
L257.988 89.682
L246.072 88.9559
L234.321 88.4029
L222.772 88.0308
L211.462 87.8456
L200.426 87.8513
L189.699 88.0499
L179.313 88.4417
L169.301 89.0249
L159.692 89.7958
L150.515 90.7492
L141.798 91.8779
L133.567 93.1733
L125.847 94.6251
L118.661 96.2215
L112.032 97.9497
L105.98 99.7954
L100.524 101.743
L95.6801 103.778
L91.4655 105.881
L87.8939 108.036
L84.9778 110.224
L82.7282 112.428
L81.1541 114.628
L80.2631 116.807
L80.0609 118.945
L80.5516 121.025
L81.7372 123.03
L83.6184 124.942
L86.1935 126.746
L89.4595 128.427
L93.4112 129.971
L98.0415 131.366
L103.341 132.602
L109.3 133.669
L115.904 134.56
L123.139 135.269
L130.987 135.794
L139.429 136.134
L148.442 136.289
L158.003 136.262
L168.085 136.06
L178.658 135.69
L189.691 135.163
L201.148 134.49
L212.993 133.686
L225.185 132.767
L237.679 131.751
L250.431 130.657
L263.389 129.505
L276.502 128.316
L289.714 127.112
L302.967 125.914
L316.2 124.742
L329.35 123.617
L342.351 122.557
L355.138 121.578
L367.642 120.694
L379.796 119.916
L391.53 119.254
L402.778 118.712
L413.474 118.29
L423.554 117.988
L432.959 117.798
L441.631 117.712
L449.52 117.717
L456.578 117.798
L462.765 117.936
L468.046 118.111
L472.395 118.303
L475.79 118.49
L478.219 118.649
L479.675 118.759
L480.159 118.8" style="fill:none;stroke:#000000;stroke-linecap:square;"/>
    <defs>
     <path d="
M-3 3
L3 -3
M-3 -3
L3 3" id="ma522d921c7" style="stroke:#000000;stroke-width:0.5;"/>
    </defs>
    <g clip-path="url(#pace543e0b6)">
     <use style="stroke:#000000;stroke-width:0.5;" x="480.159375" xlink:href="#ma522d921c7" y="118.8"/>
     <use style="stroke:#000000;stroke-width:0.5;" x="479.67895931" xlink:href="#ma522d921c7" y="118.75322037"/>
     <use style="stroke:#000000;stroke-width:0.5;" x="478.248063094" xlink:href="#ma522d921c7" y="118.602404586"/>
     <use style="stroke:#000000;stroke-width:0.5;" x="475.886622263" xlink:href="#ma522d921c7" y="118.333863438"/>
     <use style="stroke:#000000;stroke-width:0.5;" x="472.620042991" xlink:href="#ma522d921c7" y="117.936851329"/>
     <use style="stroke:#000000;stroke-width:0.5;" x="468.478652763" xlink:href="#ma522d921c7" y="117.403789093"/>
     <use style="stroke:#000000;stroke-width:0.5;" x="463.497122893" xlink:href="#ma522d921c7" y="116.730390834"/>
     <use style="stroke:#000000;stroke-width:0.5;" x="457.71388046" xlink:href="#ma522d921c7" y="115.91569777"/>
     <use style="stroke:#000000;stroke-width:0.5;" x="451.170525828" xlink:href="#ma522d921c7" y="114.962025317"/>
     <use style="stroke:#000000;stroke-width:0.5;" x="443.911269519" xlink:href="#ma522d921c7" y="113.874832136"/>
     <use style="stroke:#000000;stroke-width:0.5;" x="435.982399588" xlink:href="#ma522d921c7" y="112.662521687"/>
     <use style="stroke:#000000;stroke-width:0.5;" x="427.431787911" xlink:href="#ma522d921c7" y="111.336187889"/>
     <use style="stroke:#000000;stroke-width:0.5;" x="418.308441106" xlink:href="#ma522d921c7" y="109.909316905"/>
     <use style="stroke:#000000;stroke-width:0.5;" x="408.66209933" xlink:href="#ma522d921c7" y="108.397456933"/>
     <use style="stroke:#000000;stroke-width:0.5;" x="398.542884031" xlink:href="#ma522d921c7" y="106.817867259"/>
     <use style="stroke:#000000;stroke-width:0.5;" x="388.000993875" xlink:href="#ma522d921c7" y="105.189156885"/>
     <use style="stroke:#000000;stroke-width:0.5;" x="377.086446629" xlink:href="#ma522d921c7" y="103.530921869"/>
     <use style="stroke:#000000;stroke-width:0.5;" x="365.848863687" xlink:href="#ma522d921c7" y="101.863389201"/>
     <use style="stroke:#000000;stroke-width:0.5;" x="354.337293193" xlink:href="#ma522d921c7" y="100.207073703"/>
     <use style="stroke:#000000;stroke-width:0.5;" x="342.600067266" xlink:href="#ma522d921c7" y="98.5824531146"/>
     <use style="stroke:#000000;stroke-width:0.5;" x="330.684688689" xlink:href="#ma522d921c7" y="97.009665296"/>
     <use style="stroke:#000000;stroke-width:0.5;" x="318.637742433" xlink:href="#ma522d921c7" y="95.5082303638"/>
     <use style="stroke:#000000;stroke-width:0.5;" x="306.504827621" xlink:href="#ma522d921c7" y="94.0967995857"/>
     <use style="stroke:#000000;stroke-width:0.5;" x="294.330505836" xlink:href="#ma522d921c7" y="92.7929320293"/>
     <use style="stroke:#000000;stroke-width:0.5;" x="282.15826209" xlink:href="#ma522d921c7" y="91.6128992689"/>
     <use style="stroke:#000000;stroke-width:0.5;" x="270.030475209" xlink:href="#ma522d921c7" y="90.5715178971"/>
     <use style="stroke:#000000;stroke-width:0.5;" x="257.988394848" xlink:href="#ma522d921c7" y="89.6820091618"/>
     <use style="stroke:#000000;stroke-width:0.5;" x="246.072122799" xlink:href="#ma522d921c7" y="88.9558847324"/>
     <use style="stroke:#000000;stroke-width:0.5;" x="234.320596708" xlink:href="#ma522d921c7" y="88.4028573773"/>
     <use style="stroke:#000000;stroke-width:0.5;" x="222.771574691" xlink:href="#ma522d921c7" y="88.0307751908"/>
     <use style="stroke:#000000;stroke-width:0.5;" x="211.461619713" xlink:href="#ma522d921c7" y="87.8455779328"/>
     <use style="stroke:#000000;stroke-width:0.5;" x="200.426082939" xlink:href="#ma522d921c7" y="87.851274017"/>
     <use style="stroke:#000000;stroke-width:0.5;" x="189.699085484" xlink:href="#ma522d921c7" y="88.0499366961"/>
     <use style="stroke:#000000;stroke-width:0.5;" x="179.313498291" xlink:href="#ma522d921c7" y="88.4417180328"/>
     <use style="stroke:#000000;stroke-width:0.5;" x="169.300920014" xlink:href="#ma522d921c7" y="89.0248793093"/>
     <use style="stroke:#000000;stroke-width:0.5;" x="159.691652943" xlink:href="#ma522d921c7" y="89.7958365972"/>
     <use style="stroke:#000000;stroke-width:0.5;" x="150.514677146" xlink:href="#ma522d921c7" y="90.749220295"/>
     <use style="stroke:#000000;stroke-width:0.5;" x="141.797623084" xlink:href="#ma522d921c7" y="91.8779475187"/>
     <use style="stroke:#000000;stroke-width:0.5;" x="133.566742998" xlink:href="#ma522d921c7" y="93.1733063168"/>
     <use style="stroke:#000000;stroke-width:0.5;" x="125.846881422" xlink:href="#ma522d921c7" y="94.6250507567"/>
     <use style="stroke:#000000;stroke-width:0.5;" x="118.6614452" xlink:href="#ma522d921c7" y="96.2215060028"/>
     <use style="stroke:#000000;stroke-width:0.5;" x="112.032373333" xlink:href="#ma522d921c7" y="97.9496825719"/>
     <use style="stroke:#000000;stroke-width:0.5;" x="105.980107029" xlink:href="#ma522d921c7" y="99.7953990108"/>
     <use style="stroke:#000000;stroke-width:0.5;" x="100.523560223" xlink:href="#ma522d921c7" y="101.743412288"/>
     <use style="stroke:#000000;stroke-width:0.5;" x="95.6800908553" xlink:href="#ma522d921c7" y="103.777555234"/>
     <use style="stroke:#000000;stroke-width:0.5;" x="91.4654730657" xlink:href="#ma522d921c7" y="105.880880389"/>
     <use style="stroke:#000000;stroke-width:0.5;" x="87.8938704706" xlink:href="#ma522d921c7" y="108.035809652"/>
     <use style="stroke:#000000;stroke-width:0.5;" x="84.9778105511" xlink:href="#ma522d921c7" y="110.224289118"/>
     <use style="stroke:#000000;stroke-width:0.5;" x="82.7281601392" xlink:href="#ma522d921c7" y="112.427948493"/>
     <use style="stroke:#000000;stroke-width:0.5;" x="81.1541018884" xlink:href="#ma522d921c7" y="114.628264483"/>
     <use style="stroke:#000000;stroke-width:0.5;" x="80.2631115284" xlink:href="#ma522d921c7" y="116.806727497"/>
     <use style="stroke:#000000;stroke-width:0.5;" x="80.0609356153" xlink:href="#ma522d921c7" y="118.945010994"/>
     <use style="stroke:#000000;stroke-width:0.5;" x="80.5515693941" xlink:href="#ma522d921c7" y="121.025142725"/>
     <use style="stroke:#000000;stroke-width:0.5;" x="81.7372343046" xlink:href="#ma522d921c7" y="123.029677076"/>
     <use style="stroke:#000000;stroke-width:0.5;" x="83.6183545751" xlink:href="#ma522d921c7" y="124.941867623"/>
     <use style="stroke:#000000;stroke-width:0.5;" x="86.1935322703" xlink:href="#ma522d921c7" y="126.745838885"/>
     <use style="stroke:#000000;stroke-width:0.5;" x="89.4595200961" xlink:href="#ma522d921c7" y="128.426756174"/>
     <use style="stroke:#000000;stroke-width:0.5;" x="93.411191211" xlink:href="#ma522d921c7" y="129.970992263"/>
     <use style="stroke:#000000;stroke-width:0.5;" x="98.0415052619" xlink:href="#ma522d921c7" y="131.366289447"/>
     <use style="stroke:#000000;stroke-width:0.5;" x="103.341469863" xlink:href="#ma522d921c7" y="132.601915368"/>
     <use style="stroke:#000000;stroke-width:0.5;" x="109.300096762" xlink:href="#ma522d921c7" y="133.668810786"/>
     <use style="stroke:#000000;stroke-width:0.5;" x="115.904352006" xlink:href="#ma522d921c7" y="134.559727235"/>
     <use style="stroke:#000000;stroke-width:0.5;" x="123.139099545" xlink:href="#ma522d921c7" y="135.26935228"/>
     <use style="stroke:#000000;stroke-width:0.5;" x="130.987037897" xlink:href="#ma522d921c7" y="135.79441983"/>
     <use style="stroke:#000000;stroke-width:0.5;" x="139.428629712" xlink:href="#ma522d921c7" y="136.133802734"/>
     <use style="stroke:#000000;stroke-width:0.5;" x="148.442024446" xlink:href="#ma522d921c7" y="136.288584649"/>
     <use style="stroke:#000000;stroke-width:0.5;" x="158.002974715" xlink:href="#ma522d921c7" y="136.262107947"/>
     <use style="stroke:#000000;stroke-width:0.5;" x="168.084747434" xlink:href="#ma522d921c7" y="136.059994323"/>
     <use style="stroke:#000000;stroke-width:0.5;" x="178.658031397" xlink:href="#ma522d921c7" y="135.690134607"/>
     <use style="stroke:#000000;stroke-width:0.5;" x="189.690843685" xlink:href="#ma522d921c7" y="135.162644374"/>
     <use style="stroke:#000000;stroke-width:0.5;" x="201.148437995" xlink:href="#ma522d921c7" y="134.489782004"/>
     <use style="stroke:#000000;stroke-width:0.5;" x="212.993218869" xlink:href="#ma522d921c7" y="133.685826201"/>
     <use style="stroke:#000000;stroke-width:0.5;" x="225.184666619" xlink:href="#ma522d921c7" y="132.766910426"/>
     <use style="stroke:#000000;stroke-width:0.5;" x="237.679278687" xlink:href="#ma522d921c7" y="131.750812411"/>
     <use style="stroke:#000000;stroke-width:0.5;" x="250.430533938" xlink:href="#ma522d921c7" y="130.656697879"/>
     <use style="stroke:#000000;stroke-width:0.5;" x="263.388887199" xlink:href="#ma522d921c7" y="129.504818795"/>
     <use style="stroke:#000000;stroke-width:0.5;" x="276.501801846" xlink:href="#ma522d921c7" y="128.316167955"/>
     <use style="stroke:#000000;stroke-width:0.5;" x="289.713828614" xlink:href="#ma522d921c7" y="127.112093452"/>
     <use style="stroke:#000000;stroke-width:0.5;" x="302.966738717" xlink:href="#ma522d921c7" y="125.913878497"/>
     <use style="stroke:#000000;stroke-width:0.5;" x="316.199718964" xlink:href="#ma522d921c7" y="124.742294154"/>
     <use style="stroke:#000000;stroke-width:0.5;" x="329.349635595" xlink:href="#ma522d921c7" y="123.617134737"/>
     <use style="stroke:#000000;stroke-width:0.5;" x="342.351372062" xlink:href="#ma522d921c7" y="122.556747658"/>
     <use style="stroke:#000000;stroke-width:0.5;" x="355.138243939" xlink:href="#ma522d921c7" y="121.577571445"/>
     <use style="stroke:#000000;stroke-width:0.5;" x="367.642491511" xlink:href="#ma522d921c7" y="120.693697127"/>
     <use style="stroke:#000000;stroke-width:0.5;" x="379.795847475" xlink:href="#ma522d921c7" y="119.916469184"/>
     <use style="stroke:#000000;stroke-width:0.5;" x="391.530173688" xlink:href="#ma522d921c7" y="119.254142513"/>
     <use style="stroke:#000000;stroke-width:0.5;" x="402.778157214" xlink:href="#ma522d921c7" y="118.711611292"/>
     <use style="stroke:#000000;stroke-width:0.5;" x="413.474052196" xlink:href="#ma522d921c7" y="118.290224145"/>
     <use style="stroke:#000000;stroke-width:0.5;" x="423.554450678" xlink:href="#ma522d921c7" y="117.987697526"/>
     <use style="stroke:#000000;stroke-width:0.5;" x="432.959062596" xlink:href="#ma522d921c7" y="117.798135897"/>
     <use style="stroke:#000000;stroke-width:0.5;" x="441.631483061" xlink:href="#ma522d921c7" y="117.712163111"/>
     <use style="stroke:#000000;stroke-width:0.5;" x="449.519923978" xlink:href="#ma522d921c7" y="117.71716469"/>
     <use style="stroke:#000000;stroke-width:0.5;" x="456.577887159" xlink:href="#ma522d921c7" y="117.797635697"/>
     <use style="stroke:#000000;stroke-width:0.5;" x="462.764757438" xlink:href="#ma522d921c7" y="117.935623916"/>
     <use style="stroke:#000000;stroke-width:0.5;" x="468.046296893" xlink:href="#ma522d921c7" y="118.111253483"/>
     <use style="stroke:#000000;stroke-width:0.5;" x="472.395024961" xlink:href="#ma522d921c7" y="118.303310246"/>
     <use style="stroke:#000000;stroke-width:0.5;" x="475.790473794" xlink:href="#ma522d921c7" y="118.489867275"/>
     <use style="stroke:#000000;stroke-width:0.5;" x="478.219313321" xlink:href="#ma522d921c7" y="118.648927267"/>
     <use style="stroke:#000000;stroke-width:0.5;" x="479.675345818" xlink:href="#ma522d921c7" y="118.759058264"/>
     <use style="stroke:#000000;stroke-width:0.5;" x="480.159375" xlink:href="#ma522d921c7" y="118.8"/>
    </g>
   </g>
   <g id="line2d_2">
    <path clip-path="url(#pace543e0b6)" d="
M479.666 100.69
L477.71 101.25
L473.849 102.531
L468.163 104.413
L460.752 106.988
L451.732 110.239
L441.229 114.098
L429.38 118.46
L416.329 123.181
L402.221 128.119
L387.205 133.196
L371.428 138.392
L355.037 143.711
L338.173 149.146
L320.979 154.677
L303.588 160.276
L286.133 165.908
L268.74 171.537
L251.532 177.126
L234.626 182.638
L218.134 188.035
L202.164 193.282
L186.818 198.343
L172.193 203.187
L158.379 207.782
L145.463 212.094
L133.525 216.081
L122.639 219.677
L112.873 222.759
L104.289 225.063
L96.9426 225.981
L90.8818 224.042
L86.1489 215.495
L82.7788 190.926
L80.7994 133.666
L80.2313 53.9936
L81.0877 19.6072
L83.3744 37.907
L87.0894 66.9557
L92.223 89.4475
L98.7574 104.413
L106.667 113.88
L115.916 119.61
L126.463 122.798
L138.255 124.226
L151.229 124.418
L165.313 123.734
L180.425 122.432
L196.471 120.703
L213.344 118.694
L230.927 116.518
L249.088 114.267
L267.686 112.016
L286.563 109.826
L305.551 107.749
L324.472 105.83
L343.136 104.107
L361.348 102.616
L378.909 101.393
L395.616 100.479
L411.273 99.9226
L425.69 99.7513
L438.69 99.9216
L450.113 100.279
L459.821 100.617
L467.701 100.797
L473.667 100.821
L477.662 100.84
L479.661 100.764" style="fill:none;stroke:#008000;stroke-linecap:square;"/>
   </g>
   <g id="patch_3">
    <path d="
M33.7594 7.2
L480.159 7.2" style="fill:none;stroke:#000000;stroke-linecap:square;stroke-linejoin:miter;"/>
   </g>
   <g id="patch_4">
    <path d="
M480.159 230.4
L480.159 7.2" style="fill:none;stroke:#000000;stroke-linecap:square;stroke-linejoin:miter;"/>
   </g>
   <g id="patch_5">
    <path d="
M33.7594 230.4
L480.159 230.4" style="fill:none;stroke:#000000;stroke-linecap:square;stroke-linejoin:miter;"/>
   </g>
   <g id="patch_6">
    <path d="
M33.7594 230.4
L33.7594 7.2" style="fill:none;stroke:#000000;stroke-linecap:square;stroke-linejoin:miter;"/>
   </g>
   <g id="matplotlib.axis_1">
    <g id="xtick_1">
     <g id="line2d_3">
      <path clip-path="url(#pace543e0b6)" d="
M33.7594 230.4
L33.7594 7.2" style="fill:none;stroke:#000000;stroke-dasharray:1.000000,3.000000;stroke-dashoffset:0.0;stroke-width:0.5;"/>
     </g>
     <g id="line2d_4">
      <defs>
       <path d="
M0 0
L0 -4" id="m93b0483c22" style="stroke:#000000;stroke-width:0.5;"/>
      </defs>
      <g>
       <use style="stroke:#000000;stroke-width:0.5;" x="33.759375" xlink:href="#m93b0483c22" y="230.4"/>
      </g>
     </g>
     <g id="line2d_5">
      <defs>
       <path d="
M0 0
L0 4" id="m741efc42ff" style="stroke:#000000;stroke-width:0.5;"/>
      </defs>
      <g>
       <use style="stroke:#000000;stroke-width:0.5;" x="33.759375" xlink:href="#m741efc42ff" y="7.2"/>
      </g>
     </g>
     <g id="text_1">
      <!-- −2.5 -->
      <defs>
       <path d="
M10.6875 12.4062
L21 12.4062
L21 0
L10.6875 0
z
" id="DejaVuSans-2e"/>
       <path d="
M19.1875 8.29688
L53.6094 8.29688
L53.6094 0
L7.32812 0
L7.32812 8.29688
Q12.9375 14.1094 22.625 23.8906
Q32.3281 33.6875 34.8125 36.5312
Q39.5469 41.8438 41.4219 45.5312
Q43.3125 49.2188 43.3125 52.7812
Q43.3125 58.5938 39.2344 62.25
Q35.1562 65.9219 28.6094 65.9219
Q23.9688 65.9219 18.8125 64.3125
Q13.6719 62.7031 7.8125 59.4219
L7.8125 69.3906
Q13.7656 71.7812 18.9375 73
Q24.125 74.2188 28.4219 74.2188
Q39.75 74.2188 46.4844 68.5469
Q53.2188 62.8906 53.2188 53.4219
Q53.2188 48.9219 51.5312 44.8906
Q49.8594 40.875 45.4062 35.4062
Q44.1875 33.9844 37.6406 27.2188
Q31.1094 20.4531 19.1875 8.29688" id="DejaVuSans-32"/>
       <path d="
M10.7969 72.9062
L49.5156 72.9062
L49.5156 64.5938
L19.8281 64.5938
L19.8281 46.7344
Q21.9688 47.4688 24.1094 47.8281
Q26.2656 48.1875 28.4219 48.1875
Q40.625 48.1875 47.75 41.5
Q54.8906 34.8125 54.8906 23.3906
Q54.8906 11.625 47.5625 5.09375
Q40.2344 -1.42188 26.9062 -1.42188
Q22.3125 -1.42188 17.5469 -0.640625
Q12.7969 0.140625 7.71875 1.70312
L7.71875 11.625
Q12.1094 9.23438 16.7969 8.0625
Q21.4844 6.89062 26.7031 6.89062
Q35.1562 6.89062 40.0781 11.3281
Q45.0156 15.7656 45.0156 23.3906
Q45.0156 31 40.0781 35.4375
Q35.1562 39.8906 26.7031 39.8906
Q22.75 39.8906 18.8125 39.0156
Q14.8906 38.1406 10.7969 36.2812
z
" id="DejaVuSans-35"/>
       <path d="
M10.5938 35.5
L73.1875 35.5
L73.1875 27.2031
L10.5938 27.2031
z
" id="DejaVuSans-2212"/>
      </defs>
      <g transform="translate(22.584375 241.9984375)scale(0.1 -0.1)">
       <use xlink:href="#DejaVuSans-2212"/>
       <use x="83.7890625" xlink:href="#DejaVuSans-32"/>
       <use x="147.412109375" xlink:href="#DejaVuSans-2e"/>
       <use x="179.19921875" xlink:href="#DejaVuSans-35"/>
      </g>
     </g>
    </g>
    <g id="xtick_2">
     <g id="line2d_6">
      <path clip-path="url(#pace543e0b6)" d="
M83.3594 230.4
L83.3594 7.2" style="fill:none;stroke:#000000;stroke-dasharray:1.000000,3.000000;stroke-dashoffset:0.0;stroke-width:0.5;"/>
     </g>
     <g id="line2d_7">
      <g>
       <use style="stroke:#000000;stroke-width:0.5;" x="83.359375" xlink:href="#m93b0483c22" y="230.4"/>
      </g>
     </g>
     <g id="line2d_8">
      <g>
       <use style="stroke:#000000;stroke-width:0.5;" x="83.359375" xlink:href="#m741efc42ff" y="7.2"/>
      </g>
     </g>
     <g id="text_2">
      <!-- −2.0 -->
      <defs>
       <path d="
M31.7812 66.4062
Q24.1719 66.4062 20.3281 58.9062
Q16.5 51.4219 16.5 36.375
Q16.5 21.3906 20.3281 13.8906
Q24.1719 6.39062 31.7812 6.39062
Q39.4531 6.39062 43.2812 13.8906
Q47.125 21.3906 47.125 36.375
Q47.125 51.4219 43.2812 58.9062
Q39.4531 66.4062 31.7812 66.4062
M31.7812 74.2188
Q44.0469 74.2188 50.5156 64.5156
Q56.9844 54.8281 56.9844 36.375
Q56.9844 17.9688 50.5156 8.26562
Q44.0469 -1.42188 31.7812 -1.42188
Q19.5312 -1.42188 13.0625 8.26562
Q6.59375 17.9688 6.59375 36.375
Q6.59375 54.8281 13.0625 64.5156
Q19.5312 74.2188 31.7812 74.2188" id="DejaVuSans-30"/>
      </defs>
      <g transform="translate(72.0796875 241.9984375)scale(0.1 -0.1)">
       <use xlink:href="#DejaVuSans-2212"/>
       <use x="83.7890625" xlink:href="#DejaVuSans-32"/>
       <use x="147.412109375" xlink:href="#DejaVuSans-2e"/>
       <use x="179.19921875" xlink:href="#DejaVuSans-30"/>
      </g>
     </g>
    </g>
    <g id="xtick_3">
     <g id="line2d_9">
      <path clip-path="url(#pace543e0b6)" d="
M132.959 230.4
L132.959 7.2" style="fill:none;stroke:#000000;stroke-dasharray:1.000000,3.000000;stroke-dashoffset:0.0;stroke-width:0.5;"/>
     </g>
     <g id="line2d_10">
      <g>
       <use style="stroke:#000000;stroke-width:0.5;" x="132.959375" xlink:href="#m93b0483c22" y="230.4"/>
      </g>
     </g>
     <g id="line2d_11">
      <g>
       <use style="stroke:#000000;stroke-width:0.5;" x="132.959375" xlink:href="#m741efc42ff" y="7.2"/>
      </g>
     </g>
     <g id="text_3">
      <!-- −1.5 -->
      <defs>
       <path d="
M12.4062 8.29688
L28.5156 8.29688
L28.5156 63.9219
L10.9844 60.4062
L10.9844 69.3906
L28.4219 72.9062
L38.2812 72.9062
L38.2812 8.29688
L54.3906 8.29688
L54.3906 0
L12.4062 0
z
" id="DejaVuSans-31"/>
      </defs>
      <g transform="translate(121.784375 241.9984375)scale(0.1 -0.1)">
       <use xlink:href="#DejaVuSans-2212"/>
       <use x="83.7890625" xlink:href="#DejaVuSans-31"/>
       <use x="147.412109375" xlink:href="#DejaVuSans-2e"/>
       <use x="179.19921875" xlink:href="#DejaVuSans-35"/>
      </g>
     </g>
    </g>
    <g id="xtick_4">
     <g id="line2d_12">
      <path clip-path="url(#pace543e0b6)" d="
M182.559 230.4
L182.559 7.2" style="fill:none;stroke:#000000;stroke-dasharray:1.000000,3.000000;stroke-dashoffset:0.0;stroke-width:0.5;"/>
     </g>
     <g id="line2d_13">
      <g>
       <use style="stroke:#000000;stroke-width:0.5;" x="182.559375" xlink:href="#m93b0483c22" y="230.4"/>
      </g>
     </g>
     <g id="line2d_14">
      <g>
       <use style="stroke:#000000;stroke-width:0.5;" x="182.559375" xlink:href="#m741efc42ff" y="7.2"/>
      </g>
     </g>
     <g id="text_4">
      <!-- −1.0 -->
      <g transform="translate(171.2796875 241.9984375)scale(0.1 -0.1)">
       <use xlink:href="#DejaVuSans-2212"/>
       <use x="83.7890625" xlink:href="#DejaVuSans-31"/>
       <use x="147.412109375" xlink:href="#DejaVuSans-2e"/>
       <use x="179.19921875" xlink:href="#DejaVuSans-30"/>
      </g>
     </g>
    </g>
    <g id="xtick_5">
     <g id="line2d_15">
      <path clip-path="url(#pace543e0b6)" d="
M232.159 230.4
L232.159 7.2" style="fill:none;stroke:#000000;stroke-dasharray:1.000000,3.000000;stroke-dashoffset:0.0;stroke-width:0.5;"/>
     </g>
     <g id="line2d_16">
      <g>
       <use style="stroke:#000000;stroke-width:0.5;" x="232.159375" xlink:href="#m93b0483c22" y="230.4"/>
      </g>
     </g>
     <g id="line2d_17">
      <g>
       <use style="stroke:#000000;stroke-width:0.5;" x="232.159375" xlink:href="#m741efc42ff" y="7.2"/>
      </g>
     </g>
     <g id="text_5">
      <!-- −0.5 -->
      <g transform="translate(220.984375 241.9984375)scale(0.1 -0.1)">
       <use xlink:href="#DejaVuSans-2212"/>
       <use x="83.7890625" xlink:href="#DejaVuSans-30"/>
       <use x="147.412109375" xlink:href="#DejaVuSans-2e"/>
       <use x="179.19921875" xlink:href="#DejaVuSans-35"/>
      </g>
     </g>
    </g>
    <g id="xtick_6">
     <g id="line2d_18">
      <path clip-path="url(#pace543e0b6)" d="
M281.759 230.4
L281.759 7.2" style="fill:none;stroke:#000000;stroke-dasharray:1.000000,3.000000;stroke-dashoffset:0.0;stroke-width:0.5;"/>
     </g>
     <g id="line2d_19">
      <g>
       <use style="stroke:#000000;stroke-width:0.5;" x="281.759375" xlink:href="#m93b0483c22" y="230.4"/>
      </g>
     </g>
     <g id="line2d_20">
      <g>
       <use style="stroke:#000000;stroke-width:0.5;" x="281.759375" xlink:href="#m741efc42ff" y="7.2"/>
      </g>
     </g>
     <g id="text_6">
      <!-- 0.0 -->
      <g transform="translate(274.46953125 241.9984375)scale(0.1 -0.1)">
       <use xlink:href="#DejaVuSans-30"/>
       <use x="63.623046875" xlink:href="#DejaVuSans-2e"/>
       <use x="95.41015625" xlink:href="#DejaVuSans-30"/>
      </g>
     </g>
    </g>
    <g id="xtick_7">
     <g id="line2d_21">
      <path clip-path="url(#pace543e0b6)" d="
M331.359 230.4
L331.359 7.2" style="fill:none;stroke:#000000;stroke-dasharray:1.000000,3.000000;stroke-dashoffset:0.0;stroke-width:0.5;"/>
     </g>
     <g id="line2d_22">
      <g>
       <use style="stroke:#000000;stroke-width:0.5;" x="331.359375" xlink:href="#m93b0483c22" y="230.4"/>
      </g>
     </g>
     <g id="line2d_23">
      <g>
       <use style="stroke:#000000;stroke-width:0.5;" x="331.359375" xlink:href="#m741efc42ff" y="7.2"/>
      </g>
     </g>
     <g id="text_7">
      <!-- 0.5 -->
      <g transform="translate(324.17421875 241.9984375)scale(0.1 -0.1)">
       <use xlink:href="#DejaVuSans-30"/>
       <use x="63.623046875" xlink:href="#DejaVuSans-2e"/>
       <use x="95.41015625" xlink:href="#DejaVuSans-35"/>
      </g>
     </g>
    </g>
    <g id="xtick_8">
     <g id="line2d_24">
      <path clip-path="url(#pace543e0b6)" d="
M380.959 230.4
L380.959 7.2" style="fill:none;stroke:#000000;stroke-dasharray:1.000000,3.000000;stroke-dashoffset:0.0;stroke-width:0.5;"/>
     </g>
     <g id="line2d_25">
      <g>
       <use style="stroke:#000000;stroke-width:0.5;" x="380.959375" xlink:href="#m93b0483c22" y="230.4"/>
      </g>
     </g>
     <g id="line2d_26">
      <g>
       <use style="stroke:#000000;stroke-width:0.5;" x="380.959375" xlink:href="#m741efc42ff" y="7.2"/>
      </g>
     </g>
     <g id="text_8">
      <!-- 1.0 -->
      <g transform="translate(373.8890625 241.9984375)scale(0.1 -0.1)">
       <use xlink:href="#DejaVuSans-31"/>
       <use x="63.623046875" xlink:href="#DejaVuSans-2e"/>
       <use x="95.41015625" xlink:href="#DejaVuSans-30"/>
      </g>
     </g>
    </g>
    <g id="xtick_9">
     <g id="line2d_27">
      <path clip-path="url(#pace543e0b6)" d="
M430.559 230.4
L430.559 7.2" style="fill:none;stroke:#000000;stroke-dasharray:1.000000,3.000000;stroke-dashoffset:0.0;stroke-width:0.5;"/>
     </g>
     <g id="line2d_28">
      <g>
       <use style="stroke:#000000;stroke-width:0.5;" x="430.559375" xlink:href="#m93b0483c22" y="230.4"/>
      </g>
     </g>
     <g id="line2d_29">
      <g>
       <use style="stroke:#000000;stroke-width:0.5;" x="430.559375" xlink:href="#m741efc42ff" y="7.2"/>
      </g>
     </g>
     <g id="text_9">
      <!-- 1.5 -->
      <g transform="translate(423.59375 241.9984375)scale(0.1 -0.1)">
       <use xlink:href="#DejaVuSans-31"/>
       <use x="63.623046875" xlink:href="#DejaVuSans-2e"/>
       <use x="95.41015625" xlink:href="#DejaVuSans-35"/>
      </g>
     </g>
    </g>
    <g id="xtick_10">
     <g id="line2d_30">
      <path clip-path="url(#pace543e0b6)" d="
M480.159 230.4
L480.159 7.2" style="fill:none;stroke:#000000;stroke-dasharray:1.000000,3.000000;stroke-dashoffset:0.0;stroke-width:0.5;"/>
     </g>
     <g id="line2d_31">
      <g>
       <use style="stroke:#000000;stroke-width:0.5;" x="480.159375" xlink:href="#m93b0483c22" y="230.4"/>
      </g>
     </g>
     <g id="line2d_32">
      <g>
       <use style="stroke:#000000;stroke-width:0.5;" x="480.159375" xlink:href="#m741efc42ff" y="7.2"/>
      </g>
     </g>
     <g id="text_10">
      <!-- 2.0 -->
      <g transform="translate(472.90625 241.9984375)scale(0.1 -0.1)">
       <use xlink:href="#DejaVuSans-32"/>
       <use x="63.623046875" xlink:href="#DejaVuSans-2e"/>
       <use x="95.41015625" xlink:href="#DejaVuSans-30"/>
      </g>
     </g>
    </g>
    <g id="text_11">
     <!-- $x$ -->
     <defs>
      <path d="
M7.8125 2.875
Q9.57812 1.51562 12.7969 1.51562
Q15.9219 1.51562 18.3125 4.51562
Q20.7031 7.51562 21.5781 11.0781
L26.125 28.8125
Q27.2031 33.6406 27.2031 35.4062
Q27.2031 37.8906 25.8125 39.75
Q24.4219 41.6094 21.9219 41.6094
Q18.75 41.6094 15.9688 39.625
Q13.1875 37.6406 11.2812 34.5938
Q9.375 31.5469 8.59375 28.4219
Q8.40625 27.7812 7.8125 27.7812
L6.59375 27.7812
Q5.8125 27.7812 5.8125 28.7188
L5.8125 29
Q6.78125 32.7188 9.125 36.25
Q11.4688 39.7969 14.8594 41.9844
Q18.2656 44.1875 22.125 44.1875
Q25.7812 44.1875 28.7344 42.2344
Q31.6875 40.2812 32.9062 36.9219
Q34.625 39.9844 37.2812 42.0781
Q39.9375 44.1875 43.1094 44.1875
Q45.2656 44.1875 47.5 43.4219
Q49.75 42.6719 51.1719 41.1094
Q52.5938 39.5469 52.5938 37.2031
Q52.5938 34.6719 50.9531 32.8281
Q49.3125 31 46.7812 31
Q45.1719 31 44.0938 32.0312
Q43.0156 33.0625 43.0156 34.625
Q43.0156 36.7188 44.4531 38.2969
Q45.9062 39.8906 47.9062 40.1875
Q46.0938 41.6094 42.9219 41.6094
Q39.7031 41.6094 37.3281 38.625
Q34.9688 35.6406 33.9844 31.9844
L29.5938 14.3125
Q28.5156 10.2969 28.5156 7.71875
Q28.5156 5.17188 29.9531 3.34375
Q31.3906 1.51562 33.7969 1.51562
Q38.4844 1.51562 42.1562 5.64062
Q45.8438 9.76562 47.0156 14.7031
Q47.2188 15.2812 47.7969 15.2812
L49.0312 15.2812
Q49.4219 15.2812 49.6562 15.0156
Q49.9062 14.75 49.9062 14.4062
Q49.9062 14.3125 49.8125 14.1094
Q48.3906 8.15625 43.8438 3.51562
Q39.3125 -1.125 33.5938 -1.125
Q29.9375 -1.125 26.9844 0.84375
Q24.0312 2.82812 22.7969 6.20312
Q21.2344 3.26562 18.4688 1.0625
Q15.7188 -1.125 12.5938 -1.125
Q10.4531 -1.125 8.17188 -0.359375
Q5.90625 0.390625 4.48438 1.95312
Q3.07812 3.51562 3.07812 5.90625
Q3.07812 8.25 4.70312 10.1719
Q6.34375 12.1094 8.79688 12.1094
Q10.4531 12.1094 11.5781 11.1094
Q12.7031 10.1094 12.7031 8.5
Q12.7031 6.39062 11.2969 4.82812
Q9.90625 3.26562 7.8125 2.875" id="Cmmi10-78"/>
     </defs>
     <g transform="translate(252.609375 260.47578125)scale(0.15 -0.15)">
      <use transform="translate(0.0 0.8125)" xlink:href="#Cmmi10-78"/>
     </g>
    </g>
   </g>
   <g id="matplotlib.axis_2">
    <g id="ytick_1">
     <g id="line2d_33">
      <path clip-path="url(#pace543e0b6)" d="
M33.7594 218
L480.159 218" style="fill:none;stroke:#000000;stroke-dasharray:1.000000,3.000000;stroke-dashoffset:0.0;stroke-width:0.5;"/>
     </g>
     <g id="line2d_34">
      <defs>
       <path d="
M0 0
L4 0" id="m728421d6d4" style="stroke:#000000;stroke-width:0.5;"/>
      </defs>
      <g>
       <use style="stroke:#000000;stroke-width:0.5;" x="33.759375" xlink:href="#m728421d6d4" y="218.0"/>
      </g>
     </g>
     <g id="line2d_35">
      <defs>
       <path d="
M0 0
L-4 0" id="mcb0005524f" style="stroke:#000000;stroke-width:0.5;"/>
      </defs>
      <g>
       <use style="stroke:#000000;stroke-width:0.5;" x="480.159375" xlink:href="#mcb0005524f" y="218.0"/>
      </g>
     </g>
     <g id="text_12">
      <!-- −1.0 -->
      <g transform="translate(7.2 220.759375)scale(0.1 -0.1)">
       <use xlink:href="#DejaVuSans-2212"/>
       <use x="83.7890625" xlink:href="#DejaVuSans-31"/>
       <use x="147.412109375" xlink:href="#DejaVuSans-2e"/>
       <use x="179.19921875" xlink:href="#DejaVuSans-30"/>
      </g>
     </g>
    </g>
    <g id="ytick_2">
     <g id="line2d_36">
      <path clip-path="url(#pace543e0b6)" d="
M33.7594 168.4
L480.159 168.4" style="fill:none;stroke:#000000;stroke-dasharray:1.000000,3.000000;stroke-dashoffset:0.0;stroke-width:0.5;"/>
     </g>
     <g id="line2d_37">
      <g>
       <use style="stroke:#000000;stroke-width:0.5;" x="33.759375" xlink:href="#m728421d6d4" y="168.4"/>
      </g>
     </g>
     <g id="line2d_38">
      <g>
       <use style="stroke:#000000;stroke-width:0.5;" x="480.159375" xlink:href="#mcb0005524f" y="168.4"/>
      </g>
     </g>
     <g id="text_13">
      <!-- −0.5 -->
      <g transform="translate(7.409375 171.159375)scale(0.1 -0.1)">
       <use xlink:href="#DejaVuSans-2212"/>
       <use x="83.7890625" xlink:href="#DejaVuSans-30"/>
       <use x="147.412109375" xlink:href="#DejaVuSans-2e"/>
       <use x="179.19921875" xlink:href="#DejaVuSans-35"/>
      </g>
     </g>
    </g>
    <g id="ytick_3">
     <g id="line2d_39">
      <path clip-path="url(#pace543e0b6)" d="
M33.7594 118.8
L480.159 118.8" style="fill:none;stroke:#000000;stroke-dasharray:1.000000,3.000000;stroke-dashoffset:0.0;stroke-width:0.5;"/>
     </g>
     <g id="line2d_40">
      <g>
       <use style="stroke:#000000;stroke-width:0.5;" x="33.759375" xlink:href="#m728421d6d4" y="118.8"/>
      </g>
     </g>
     <g id="line2d_41">
      <g>
       <use style="stroke:#000000;stroke-width:0.5;" x="480.159375" xlink:href="#mcb0005524f" y="118.8"/>
      </g>
     </g>
     <g id="text_14">
      <!-- 0.0 -->
      <g transform="translate(15.1796875 121.559375)scale(0.1 -0.1)">
       <use xlink:href="#DejaVuSans-30"/>
       <use x="63.623046875" xlink:href="#DejaVuSans-2e"/>
       <use x="95.41015625" xlink:href="#DejaVuSans-30"/>
      </g>
     </g>
    </g>
    <g id="ytick_4">
     <g id="line2d_42">
      <path clip-path="url(#pace543e0b6)" d="
M33.7594 69.2
L480.159 69.2" style="fill:none;stroke:#000000;stroke-dasharray:1.000000,3.000000;stroke-dashoffset:0.0;stroke-width:0.5;"/>
     </g>
     <g id="line2d_43">
      <g>
       <use style="stroke:#000000;stroke-width:0.5;" x="33.759375" xlink:href="#m728421d6d4" y="69.2"/>
      </g>
     </g>
     <g id="line2d_44">
      <g>
       <use style="stroke:#000000;stroke-width:0.5;" x="480.159375" xlink:href="#mcb0005524f" y="69.2"/>
      </g>
     </g>
     <g id="text_15">
      <!-- 0.5 -->
      <g transform="translate(15.3890625 71.959375)scale(0.1 -0.1)">
       <use xlink:href="#DejaVuSans-30"/>
       <use x="63.623046875" xlink:href="#DejaVuSans-2e"/>
       <use x="95.41015625" xlink:href="#DejaVuSans-35"/>
      </g>
     </g>
    </g>
    <g id="ytick_5">
     <g id="line2d_45">
      <path clip-path="url(#pace543e0b6)" d="
M33.7594 19.6
L480.159 19.6" style="fill:none;stroke:#000000;stroke-dasharray:1.000000,3.000000;stroke-dashoffset:0.0;stroke-width:0.5;"/>
     </g>
     <g id="line2d_46">
      <g>
       <use style="stroke:#000000;stroke-width:0.5;" x="33.759375" xlink:href="#m728421d6d4" y="19.6"/>
      </g>
     </g>
     <g id="line2d_47">
      <g>
       <use style="stroke:#000000;stroke-width:0.5;" x="480.159375" xlink:href="#mcb0005524f" y="19.6"/>
      </g>
     </g>
     <g id="text_16">
      <!-- 1.0 -->
      <g transform="translate(15.61875 22.359375)scale(0.1 -0.1)">
       <use xlink:href="#DejaVuSans-31"/>
       <use x="63.623046875" xlink:href="#DejaVuSans-2e"/>
       <use x="95.41015625" xlink:href="#DejaVuSans-30"/>
      </g>
     </g>
    </g>
   </g>
   <g id="legend_1">
    <g id="patch_7">
     <path d="
M295.086 52.0275
L474.159 52.0275
L474.159 13.2
L295.086 13.2
z
" style="fill:#ffffff;stroke:#000000;stroke-linejoin:miter;"/>
    </g>
    <g id="line2d_48">
     <path d="
M303.486 22.9181
L320.286 22.9181" style="fill:none;stroke:#000000;stroke-linecap:square;"/>
    </g>
    <g id="line2d_49">
     <g>
      <use style="stroke:#000000;stroke-width:0.5;" x="303.485625" xlink:href="#ma522d921c7" y="22.918125"/>
      <use style="stroke:#000000;stroke-width:0.5;" x="320.285625" xlink:href="#ma522d921c7" y="22.918125"/>
     </g>
    </g>
    <g id="text_17">
     <!-- joukowsky -0.1 + 0.05j -->
     <defs>
      <path d="
M46 62.7031
L46 35.5
L73.1875 35.5
L73.1875 27.2031
L46 27.2031
L46 0
L37.7969 0
L37.7969 27.2031
L10.5938 27.2031
L10.5938 35.5
L37.7969 35.5
L37.7969 62.7031
z
" id="DejaVuSans-2b"/>
      <path d="
M4.89062 31.3906
L31.2031 31.3906
L31.2031 23.3906
L4.89062 23.3906
z
" id="DejaVuSans-2d"/>
      <path d="
M30.6094 48.3906
Q23.3906 48.3906 19.1875 42.75
Q14.9844 37.1094 14.9844 27.2969
Q14.9844 17.4844 19.1562 11.8438
Q23.3438 6.20312 30.6094 6.20312
Q37.7969 6.20312 41.9844 11.8594
Q46.1875 17.5312 46.1875 27.2969
Q46.1875 37.0156 41.9844 42.7031
Q37.7969 48.3906 30.6094 48.3906
M30.6094 56
Q42.3281 56 49.0156 48.375
Q55.7188 40.7656 55.7188 27.2969
Q55.7188 13.875 49.0156 6.21875
Q42.3281 -1.42188 30.6094 -1.42188
Q18.8438 -1.42188 12.1719 6.21875
Q5.51562 13.875 5.51562 27.2969
Q5.51562 40.7656 12.1719 48.375
Q18.8438 56 30.6094 56" id="DejaVuSans-6f"/>
      <path d="
M9.07812 75.9844
L18.1094 75.9844
L18.1094 31.1094
L44.9219 54.6875
L56.3906 54.6875
L27.3906 29.1094
L57.625 0
L45.9062 0
L18.1094 26.7031
L18.1094 0
L9.07812 0
z
" id="DejaVuSans-6b"/>
      <path d="
M9.42188 54.6875
L18.4062 54.6875
L18.4062 -0.984375
Q18.4062 -11.4219 14.4219 -16.1094
Q10.4531 -20.7969 1.60938 -20.7969
L-1.8125 -20.7969
L-1.8125 -13.1875
L0.59375 -13.1875
Q5.71875 -13.1875 7.5625 -10.8125
Q9.42188 -8.45312 9.42188 -0.984375
z

M9.42188 75.9844
L18.4062 75.9844
L18.4062 64.5938
L9.42188 64.5938
z
" id="DejaVuSans-6a"/>
      <path id="DejaVuSans-20"/>
      <path d="
M32.1719 -5.07812
Q28.375 -14.8438 24.75 -17.8125
Q21.1406 -20.7969 15.0938 -20.7969
L7.90625 -20.7969
L7.90625 -13.2812
L13.1875 -13.2812
Q16.8906 -13.2812 18.9375 -11.5156
Q21 -9.76562 23.4844 -3.21875
L25.0938 0.875
L2.98438 54.6875
L12.5 54.6875
L29.5938 11.9219
L46.6875 54.6875
L56.2031 54.6875
z
" id="DejaVuSans-79"/>
      <path d="
M8.5 21.5781
L8.5 54.6875
L17.4844 54.6875
L17.4844 21.9219
Q17.4844 14.1562 20.5 10.2656
Q23.5312 6.39062 29.5938 6.39062
Q36.8594 6.39062 41.0781 11.0312
Q45.3125 15.6719 45.3125 23.6875
L45.3125 54.6875
L54.2969 54.6875
L54.2969 0
L45.3125 0
L45.3125 8.40625
Q42.0469 3.42188 37.7188 1
Q33.4062 -1.42188 27.6875 -1.42188
Q18.2656 -1.42188 13.375 4.4375
Q8.5 10.2969 8.5 21.5781
M31.1094 56
z
" id="DejaVuSans-75"/>
      <path d="
M4.20312 54.6875
L13.1875 54.6875
L24.4219 12.0156
L35.5938 54.6875
L46.1875 54.6875
L57.4219 12.0156
L68.6094 54.6875
L77.5938 54.6875
L63.2812 0
L52.6875 0
L40.9219 44.8281
L29.1094 0
L18.5 0
z
" id="DejaVuSans-77"/>
      <path d="
M44.2812 53.0781
L44.2812 44.5781
Q40.4844 46.5312 36.375 47.5
Q32.2812 48.4844 27.875 48.4844
Q21.1875 48.4844 17.8438 46.4375
Q14.5 44.3906 14.5 40.2812
Q14.5 37.1562 16.8906 35.375
Q19.2812 33.5938 26.5156 31.9844
L29.5938 31.2969
Q39.1562 29.25 43.1875 25.5156
Q47.2188 21.7812 47.2188 15.0938
Q47.2188 7.46875 41.1875 3.01562
Q35.1562 -1.42188 24.6094 -1.42188
Q20.2188 -1.42188 15.4531 -0.5625
Q10.6875 0.296875 5.42188 2
L5.42188 11.2812
Q10.4062 8.6875 15.2344 7.39062
Q20.0625 6.10938 24.8125 6.10938
Q31.1562 6.10938 34.5625 8.28125
Q37.9844 10.4531 37.9844 14.4062
Q37.9844 18.0625 35.5156 20.0156
Q33.0625 21.9688 24.7031 23.7812
L21.5781 24.5156
Q13.2344 26.2656 9.51562 29.9062
Q5.8125 33.5469 5.8125 39.8906
Q5.8125 47.6094 11.2812 51.7969
Q16.75 56 26.8125 56
Q31.7812 56 36.1719 55.2656
Q40.5781 54.5469 44.2812 53.0781" id="DejaVuSans-73"/>
     </defs>
     <g transform="translate(333.485625 27.118125)scale(0.12 -0.12)">
      <use xlink:href="#DejaVuSans-6a"/>
      <use x="27.783203125" xlink:href="#DejaVuSans-6f"/>
      <use x="88.96484375" xlink:href="#DejaVuSans-75"/>
      <use x="152.34375" xlink:href="#DejaVuSans-6b"/>
      <use x="206.62890625" xlink:href="#DejaVuSans-6f"/>
      <use x="267.810546875" xlink:href="#DejaVuSans-77"/>
      <use x="349.59765625" xlink:href="#DejaVuSans-73"/>
      <use x="401.697265625" xlink:href="#DejaVuSans-6b"/>
      <use x="455.982421875" xlink:href="#DejaVuSans-79"/>
      <use x="515.162109375" xlink:href="#DejaVuSans-20"/>
      <use x="546.94921875" xlink:href="#DejaVuSans-2d"/>
      <use x="583.033203125" xlink:href="#DejaVuSans-30"/>
      <use x="646.65625" xlink:href="#DejaVuSans-2e"/>
      <use x="678.443359375" xlink:href="#DejaVuSans-31"/>
      <use x="742.06640625" xlink:href="#DejaVuSans-20"/>
      <use x="773.853515625" xlink:href="#DejaVuSans-2b"/>
      <use x="857.642578125" xlink:href="#DejaVuSans-20"/>
      <use x="889.4296875" xlink:href="#DejaVuSans-30"/>
      <use x="953.052734375" xlink:href="#DejaVuSans-2e"/>
      <use x="984.83984375" xlink:href="#DejaVuSans-30"/>
      <use x="1048.46289062" xlink:href="#DejaVuSans-35"/>
      <use x="1112.0859375" xlink:href="#DejaVuSans-6a"/>
     </g>
    </g>
    <g id="line2d_50">
     <path d="
M303.486 40.5319
L320.286 40.5319" style="fill:none;stroke:#008000;stroke-linecap:square;"/>
    </g>
    <g id="line2d_51"/>
    <g id="text_18">
     <!-- $cp$ -->
     <defs>
      <path d="
M11.7188 11.9219
Q11.7188 7.5625 13.9375 4.53125
Q16.1562 1.51562 20.3125 1.51562
Q26.2656 1.51562 31.75 4.25
Q37.25 6.98438 40.7188 11.8125
Q41.0156 12.1094 41.5 12.1094
Q42 12.1094 42.5 11.5469
Q43.0156 10.9844 43.0156 10.5
Q43.0156 10.1094 42.8281 9.90625
Q39.1562 4.78125 32.9531 1.82812
Q26.7656 -1.125 20.125 -1.125
Q15.3281 -1.125 11.6719 1.14062
Q8.01562 3.42188 6 7.21875
Q4 11.0312 4 15.8281
Q4 22.5625 7.76562 29.2031
Q11.5312 35.8438 17.7812 40.0156
Q24.0312 44.1875 30.9062 44.1875
Q35.4062 44.1875 38.9844 42.0156
Q42.5781 39.8438 42.5781 35.5938
Q42.5781 32.8594 40.9844 30.9219
Q39.4062 29 36.7188 29
Q35.1094 29 34 30
Q32.9062 31 32.9062 32.625
Q32.9062 34.9688 34.6094 36.625
Q36.3281 38.2812 38.625 38.2812
L38.8125 38.2812
Q37.6406 39.9844 35.4219 40.7969
Q33.2031 41.6094 30.8125 41.6094
Q24.9531 41.6094 20.5469 36.5938
Q16.1562 31.5938 13.9375 24.625
Q11.7188 17.6719 11.7188 11.9219" id="Cmmi10-63"/>
      <path d="
M-2.48438 -19.3906
Q-3.42188 -19.3906 -3.42188 -18.1094
Q-3.07812 -15.9219 -2.09375 -15.9219
Q1.03125 -15.9219 2.26562 -15.3594
Q3.51562 -14.7969 4.20312 -12.5
L15.4844 32.5156
Q16.2188 34.375 16.2188 37.3125
Q16.2188 41.6094 13.2812 41.6094
Q10.1562 41.6094 8.64062 37.8594
Q7.125 34.125 5.71875 28.4219
Q5.71875 27.7812 4.89062 27.7812
L3.71875 27.7812
Q3.46875 27.7812 3.17188 28.1406
Q2.875 28.5156 2.875 28.8125
Q3.95312 33.1562 4.95312 36.1719
Q5.95312 39.2031 8.07812 41.6875
Q10.2031 44.1875 13.375 44.1875
Q16.7969 44.1875 19.375 42.25
Q21.9688 40.3281 22.7031 37.0156
Q25.4375 40.1875 28.75 42.1875
Q32.0781 44.1875 35.5938 44.1875
Q39.7969 44.1875 42.8906 41.9375
Q46 39.7031 47.5625 36.0625
Q49.125 32.4219 49.125 28.2188
Q49.125 21.7812 45.8281 14.8906
Q42.5312 8.01562 36.8906 3.4375
Q31.25 -1.125 24.8125 -1.125
Q21.875 -1.125 19.5 0.53125
Q17.1406 2.20312 15.8281 4.89062
L11.2812 -12.8906
Q11.0312 -14.3594 10.9844 -14.5938
Q10.9844 -15.9219 17.5781 -15.9219
Q18.6094 -15.9219 18.6094 -17.1875
Q18.2656 -18.5 18.0469 -18.9375
Q17.8281 -19.3906 16.8906 -19.3906
z

M24.9062 1.51562
Q28.375 1.51562 31.3438 4.375
Q34.3281 7.23438 36.1875 10.7969
Q37.5469 13.4844 38.7344 17.3594
Q39.9375 21.2344 40.8125 25.625
Q41.7031 30.0312 41.7031 32.625
Q41.7031 34.9062 41.0938 36.9062
Q40.4844 38.9219 39.0938 40.2656
Q37.7031 41.6094 35.4062 41.6094
Q31.7344 41.6094 28.4844 38.9844
Q25.25 36.375 22.6094 32.5156
L22.6094 32.1719
L17.0938 10.1094
Q17.7812 6.54688 19.7344 4.03125
Q21.6875 1.51562 24.9062 1.51562" id="Cmmi10-70"/>
     </defs>
     <g transform="translate(333.485625 44.731875)scale(0.12 -0.12)">
      <use transform="translate(0.0 0.8125)" xlink:href="#Cmmi10-63"/>
      <use transform="translate(43.212890625 0.8125)" xlink:href="#Cmmi10-70"/>
     </g>
    </g>
   </g>
  </g>
 </g>
 <defs>
  <clipPath id="pace543e0b6">
   <rect height="223.2" width="446.4" x="33.759375" y="7.2"/>
  </clipPath>
 </defs>
</svg>
